<svg width="103" height="194" viewBox="0 0 103 194" fill="none" xmlns="http://www.w3.org/2000/svg">
<path d="M27.4688 146.2C27.4688 149.8 26.2688 152.933 23.8688 155.6C21.4688 158.267 18.2021 159.6 14.0688 159.6C9.93542 159.6 6.66875 158.267 4.26875 155.6C1.86875 152.933 0.66875 149.8 0.66875 146.2C0.66875 142.6 1.86875 139.467 4.26875 136.8C6.66875 134.133 9.93542 132.8 14.0688 132.8C18.2021 132.8 21.4688 134.133 23.8688 136.8C26.2688 139.467 27.4688 142.6 27.4688 146.2ZM27.4688 66.4C27.4688 70 26.2688 73.1333 23.8688 75.8C21.4688 78.4667 18.2021 79.8 14.0688 79.8C9.93542 79.8 6.66875 78.4667 4.26875 75.8C1.86875 73.1333 0.66875 70 0.66875 66.4C0.66875 62.8 1.86875 59.6667 4.26875 57C6.66875 54.3333 9.93542 53 14.0688 53C18.2021 53 21.4688 54.3333 23.8688 57C26.2688 59.6667 27.4688 62.8 27.4688 66.4ZM72.8875 97.2C72.8875 114.267 75.3542 130.067 80.2875 144.6C85.2208 159.133 92.4875 172.6 102.088 185L88.8875 194C78.4875 181.333 70.0875 166.8 63.6875 150.4C57.4208 133.867 54.2875 116.133 54.2875 97.2C54.2875 78.2667 57.4208 60.6 63.6875 44.2C70.0875 27.6667 78.4875 13.0667 88.8875 0.39999L102.088 9.39999C92.4875 21.8 85.2208 35.2667 80.2875 49.8C75.3542 64.3333 72.8875 80.1333 72.8875 97.2Z" fill="black"/>
</svg>
