<svg width="1255" height="796" viewBox="0 0 1255 796" fill="none" xmlns="http://www.w3.org/2000/svg">
<path d="M906.252 735.684L909.604 744.223C905.276 747.611 898.422 746.97 895.537 746.226L903.917 767.572C905.979 777.321 899.554 786.178 889.947 787.839C880.773 789.424 872.231 787.755 868.801 773.616C866.058 762.305 875.587 755.466 880.694 753.461L884.286 762.61C878.241 764.24 876.606 775.479 884.89 778.562C890.99 779.686 895.175 775.932 894.379 768.501C894.283 765.254 880.013 731.908 880.013 731.908L888.593 728.539C894.47 739.184 902.814 737.738 906.252 735.684Z" fill="#1AA080" fill-opacity="0.4" stroke="#1AA080" stroke-opacity="0.4" stroke-width="2"/>
<path d="M901.135 733.47L904.487 742.008C900.159 745.397 893.305 744.756 890.42 744.012L898.8 765.358C900.862 775.107 894.437 783.964 884.83 785.624C875.656 787.209 867.113 785.541 863.684 771.402C860.941 760.09 870.469 753.252 875.577 751.247L879.168 760.395C873.123 762.026 871.489 773.265 879.773 776.347C885.873 777.472 890.058 773.717 889.262 766.287C889.166 763.04 874.895 729.694 874.895 729.694L883.476 726.325C889.352 736.97 897.697 735.523 901.135 733.47Z" stroke="#1AA080" stroke-opacity="0.4" stroke-width="2"/>
<rect x="438.422" y="703.965" width="58" height="58" rx="18" transform="rotate(27.8223 438.422 703.965)" stroke="#1AA080" stroke-opacity="0.4" stroke-width="2"/>
<circle cx="450.534" cy="743.147" r="14.5696" transform="rotate(27.8223 450.534 743.147)" stroke="#1AA080" stroke-opacity="0.4" stroke-width="2"/>
<circle cx="473.623" cy="736.01" r="3.79747" transform="rotate(27.8223 473.623 736.01)" fill="#1AA080" fill-opacity="0.4"/>
<path fill-rule="evenodd" clip-rule="evenodd" d="M1211.19 704.035L1211.99 704.315L1225.53 709.023C1226.57 709.385 1227.71 708.834 1228.07 707.79L1237.23 681.443C1237.6 680.399 1237.05 679.259 1236 678.897L1186.89 661.816C1185.84 661.454 1184.7 662.005 1184.34 663.049L1175.18 689.396C1174.82 690.44 1175.37 691.58 1176.41 691.942L1189.16 696.377L1189.93 696.643L1190.29 697.366L1197.22 711.114L1210.43 704.42L1211.19 704.035ZM1198.12 712.9L1196.34 713.804L1196.34 713.804L1195.44 712.018L1188.51 698.266L1175.75 693.831C1173.67 693.106 1172.56 690.826 1173.29 688.739L1182.45 662.392C1183.18 660.305 1185.46 659.202 1187.54 659.927L1236.66 677.008C1238.75 677.733 1239.85 680.013 1239.12 682.099L1229.96 708.447C1229.24 710.534 1226.96 711.637 1224.87 710.912L1211.33 706.204L1198.12 712.9ZM1219.43 686.263C1220.28 686.234 1221.14 686.119 1222 685.919C1222.87 685.705 1223.72 685.36 1224.55 684.881L1225.85 685.333L1221.1 698.993L1219.27 698.357L1223.13 687.24C1222.92 687.329 1222.67 687.412 1222.38 687.488C1222.11 687.568 1221.8 687.632 1221.48 687.681C1221.17 687.734 1220.84 687.774 1220.49 687.801C1220.15 687.832 1219.83 687.845 1219.53 687.841L1219.43 686.263ZM1209.61 675.626C1208.13 675.454 1206.6 675.83 1204.97 676.533C1204.13 674.974 1203.16 673.725 1201.9 672.944C1200.39 672.011 1198.62 671.839 1196.53 672.317L1196.47 672.33L1196.41 672.35C1192.07 673.893 1190.32 678.18 1190.7 682.668C1191.08 687.162 1193.57 692.099 1197.96 695.487C1198.07 695.572 1198.19 695.63 1198.32 695.663C1198.44 695.716 1198.57 695.746 1198.71 695.748C1204.26 695.816 1209.27 693.487 1212.35 690.197C1215.44 686.913 1216.73 682.47 1214.28 678.561L1214.25 678.512L1214.21 678.467C1212.86 676.792 1211.37 675.83 1209.61 675.626ZM1203.56 678.178C1203.7 678.453 1203.94 678.64 1204.21 678.711C1204.47 678.825 1204.78 678.829 1205.05 678.695C1206.85 677.825 1208.23 677.479 1209.38 677.612C1210.46 677.739 1211.51 678.315 1212.61 679.673C1214.38 682.539 1213.58 685.965 1210.9 688.829C1208.24 691.655 1203.88 693.739 1198.98 693.749C1195.15 690.705 1193.02 686.361 1192.69 682.499C1192.36 678.587 1193.87 675.406 1197.03 674.254C1198.74 673.874 1199.91 674.07 1200.85 674.645C1201.83 675.254 1202.7 676.381 1203.56 678.178Z" fill="#1AA080" fill-opacity="0.4"/>
<path d="M113.817 269.101L109.601 277.248C104.2 276.224 100.168 270.645 98.827 267.984L88.2876 288.351C82.311 296.324 71.4143 297.324 63.8367 291.19C56.601 285.332 52.229 277.806 60.6081 265.912C67.3113 256.396 78.7329 259.061 83.6058 261.583L79.089 270.311C73.8799 266.837 64.3477 273.011 67.485 281.274C70.6574 286.605 76.239 287.28 81.3055 281.786C83.6854 279.575 99.3731 246.872 99.3731 246.872L107.56 251.109C103.422 262.542 110.007 267.868 113.817 269.101Z" fill="#1AA080" fill-opacity="0.4" stroke="#1AA080" stroke-opacity="0.4" stroke-width="2"/>
<path d="M112.112 263.793L107.896 271.94C102.495 270.915 98.463 265.337 97.1219 262.675L86.5825 283.042C80.6059 291.015 69.7092 292.016 62.1316 285.881C54.8959 280.024 50.5239 272.497 58.903 260.603C65.6062 251.088 77.0279 253.752 81.9008 256.274L77.3839 265.003C72.1748 261.529 62.6427 267.703 65.7799 275.966C68.9523 281.296 74.5339 281.971 79.6004 276.478C81.9803 274.267 97.668 241.564 97.668 241.564L105.855 245.8C101.717 257.233 108.302 262.559 112.112 263.793Z" stroke="#1AA080" stroke-opacity="0.4" stroke-width="2"/>
<rect x="1179.54" y="297.452" width="58" height="58" rx="18" transform="rotate(-19.4387 1179.54 297.452)" stroke="#1AA080" stroke-opacity="0.4" stroke-width="2"/>
<circle cx="1216.53" cy="315.147" r="14.5696" transform="rotate(-19.4387 1216.53 315.147)" stroke="#1AA080" stroke-opacity="0.4" stroke-width="2"/>
<circle cx="1226.96" cy="293.346" r="3.79747" transform="rotate(-19.4387 1226.96 293.346)" fill="#1AA080" fill-opacity="0.4"/>
<path d="M342.426 502.987C347.621 517.406 340.238 533.258 325.957 538.404C322.878 539.513 319.731 540.035 316.636 540.027C316.094 540.025 315.642 540.288 315.325 540.53C314.99 540.785 314.673 541.121 314.381 541.47C313.828 542.132 313.25 542.988 312.71 543.788C312.681 543.831 312.651 543.875 312.622 543.918C312.036 544.786 311.498 545.572 311.011 546.126C310.784 546.385 310.603 546.551 310.47 546.645C310.465 546.639 310.459 546.632 310.454 546.625C310.336 546.478 310.197 546.237 310.041 545.883C309.73 545.175 309.446 544.227 309.143 543.188C309.122 543.118 309.102 543.047 309.081 542.976C308.807 542.033 308.516 541.032 308.19 540.216C308.014 539.775 307.811 539.345 307.57 538.985C307.34 538.641 307.002 538.25 306.512 538.054C299.41 535.211 293.494 529.434 290.683 521.632C285.487 507.214 292.87 491.362 307.151 486.216C321.433 481.07 337.23 488.569 342.426 502.987ZM310.351 546.714C310.351 546.714 310.353 546.713 310.356 546.712C310.353 546.713 310.351 546.714 310.351 546.714Z" stroke="#1AA080" stroke-opacity="0.4" stroke-width="2"/>
<path d="M302.425 525.682C302.246 524.711 304.079 518.874 305.279 512.229C306.479 505.584 308.711 506.287 310.94 506.565C313.169 506.843 314.327 507.415 317.095 507.971C319.862 508.527 321.666 509.258 322.299 508.166C322.74 507.49 324.209 505.2 326.556 501.455C328.904 497.71 330.316 499.065 330.192 500.145C330.068 501.226 327.139 514.188 326.346 516.545C325.552 518.902 322.421 518.477 322.421 518.477L315.646 516.776C315.646 516.776 311.64 515.632 310.317 517.661C308.995 519.691 306.457 525.472 304.903 526.86C303.35 528.248 302.604 526.653 302.425 525.682Z" fill="#1AA080" fill-opacity="0.4"/>
<path d="M510.477 8.01431L448.231 20.6553L478.02 33.5923L482.023 64.7217L510.477 8.01431Z" stroke="#1AA080" stroke-opacity="0.4" stroke-width="2"/>
<path d="M943 460.404L971.456 517.19L976.166 485.056L1005.17 473.064L943 460.404Z" stroke="#1AA080" stroke-opacity="0.4" stroke-width="2"/>
<path fill-rule="evenodd" clip-rule="evenodd" d="M52.6357 590.508L53.3527 590.052L65.4422 582.352C66.3739 581.758 66.6481 580.522 66.0547 579.59L51.0691 556.062C50.4757 555.13 49.2394 554.856 48.3077 555.449L4.44822 583.384C3.51657 583.977 3.24234 585.213 3.83572 586.145L18.8214 609.674C19.4148 610.605 20.651 610.88 21.5827 610.286L32.9693 603.034L33.6522 602.599L34.4454 602.762L49.5272 605.853L52.467 591.341L52.6357 590.508ZM51.4864 606.255L51.0895 608.214L51.0894 608.215L49.1301 607.814L34.0437 604.721L22.6571 611.973C20.7938 613.16 18.3212 612.611 17.1345 610.748L2.14882 587.22C0.962059 585.356 1.51051 582.884 3.37381 581.697L47.2333 553.762C49.0966 552.576 51.5692 553.124 52.756 554.987L67.7416 578.516C68.9284 580.379 68.3799 582.852 66.5166 584.039L54.4271 591.738L51.4864 606.255ZM43.8112 573.015C44.3145 572.331 44.7554 571.589 45.1339 570.787C45.5049 569.973 45.7596 569.093 45.8981 568.147L47.0579 567.409L54.8272 579.607L53.193 580.648L46.8699 570.72C46.8116 570.939 46.7218 571.186 46.6006 571.461C46.4912 571.728 46.3545 572.005 46.1907 572.291C46.0387 572.569 45.8653 572.853 45.6706 573.142C45.4876 573.423 45.2993 573.684 45.1056 573.922L43.8112 573.015ZM22.4862 578.511C23.8825 578.005 25.4649 578.016 27.2074 578.326C27.6638 576.616 28.3223 575.177 29.3717 574.126C30.6254 572.87 32.3055 572.295 34.4541 572.279L34.5122 572.278L34.5701 572.284C39.1579 572.784 41.8408 576.555 42.5061 581.009C43.1726 585.47 41.8913 590.846 38.3968 595.155C38.3089 595.264 38.2031 595.349 38.087 595.41C37.9829 595.489 37.8616 595.548 37.7271 595.582C32.3447 596.926 26.931 595.814 23.1698 593.324C19.4149 590.838 17.1322 586.812 18.6193 582.443L18.6381 582.388L18.6631 582.336C19.5866 580.396 20.8183 579.116 22.4862 578.511ZM27.6257 580.449C27.9233 580.516 28.2194 580.442 28.4452 580.272C28.696 580.139 28.889 579.902 28.955 579.603C29.3854 577.654 29.9694 576.358 30.787 575.539C31.5606 574.764 32.6609 574.303 34.4107 574.279C37.753 574.671 39.948 577.421 40.5281 581.304C41.1007 585.137 40.0267 589.855 36.9997 593.7C32.2354 594.818 27.5055 593.796 24.274 591.656C21.0001 589.489 19.4366 586.337 20.4943 583.142C21.2554 581.567 22.1392 580.765 23.1684 580.391C24.2561 579.997 25.6778 580.016 27.6257 580.449Z" fill="#1AA080" fill-opacity="0.4"/>
<path d="M985.638 170.641C979.89 184.848 963.815 191.732 949.743 186.039C946.709 184.812 944.016 183.101 941.716 181.03C941.313 180.668 940.801 180.562 940.403 180.531C939.984 180.498 939.524 180.536 939.073 180.602C938.22 180.726 937.219 180.978 936.283 181.213C936.232 181.226 936.181 181.239 936.13 181.252C935.115 181.507 934.189 181.734 933.457 181.822C933.115 181.863 932.87 181.867 932.708 181.847C932.708 181.839 932.708 181.831 932.709 181.822C932.719 181.634 932.776 181.361 932.896 180.994C933.137 180.259 933.558 179.363 934.025 178.387C934.057 178.321 934.088 178.255 934.12 178.188C934.545 177.302 934.996 176.362 935.298 175.537C935.461 175.091 935.597 174.635 935.658 174.207C935.715 173.797 935.724 173.28 935.49 172.808C932.095 165.951 931.542 157.701 934.652 150.014C940.4 135.806 956.475 128.922 970.547 134.615C984.619 140.308 991.385 156.433 985.638 170.641ZM932.573 181.82C932.573 181.82 932.575 181.82 932.578 181.822C932.575 181.82 932.573 181.82 932.573 181.82Z" stroke="#1AA080" stroke-opacity="0.4" stroke-width="2"/>
<path d="M940.698 160.864C941.213 160.021 946.473 156.895 951.799 152.745C957.126 148.595 958.319 150.608 959.795 152.302C961.27 153.996 961.751 155.195 963.442 157.455C965.133 159.716 965.989 161.463 967.189 161.073C967.969 160.863 970.59 160.137 974.837 158.913C979.084 157.689 979.233 159.64 978.419 160.362C977.606 161.084 966.778 168.788 964.614 170.014C962.451 171.24 960.401 168.835 960.401 168.835L956.489 163.049C956.489 163.049 954.268 159.523 951.929 160.153C949.59 160.783 943.842 163.397 941.759 163.395C939.676 163.392 940.184 161.707 940.698 160.864Z" fill="#1AA080" fill-opacity="0.4"/>
</svg>
