<svg width="460" height="539" viewBox="0 0 460 539" fill="none" xmlns="http://www.w3.org/2000/svg">
<g filter="url(#filter0_d_42_3399)">
<path d="M392.171 246.907C392.171 339.966 316.711 415.407 223.627 415.407C130.542 415.407 55.083 339.966 55.083 246.907C55.083 153.847 130.542 78.4067 223.627 78.4067C316.711 78.4067 392.171 153.847 392.171 246.907Z" stroke="#524BA7" stroke-width="4" shape-rendering="crispEdges"/>
</g>
<g filter="url(#filter1_d_42_3399)">
<path d="M63.998 359.936C66.4547 362.957 67.7598 365.745 67.9135 368.3C68.1048 370.86 67.0623 373.065 64.7862 374.915C63.5447 375.924 62.294 376.563 61.034 376.831C59.8116 377.103 58.5761 377.042 57.3276 376.648C56.1165 376.258 54.8989 375.564 53.6747 374.565C52.4504 373.567 51.2242 372.313 49.9959 370.803L48.0524 368.413L40.0757 374.898L37.6275 371.887L58.8263 354.655C59.7231 355.335 60.6232 356.167 61.5266 357.151C62.4675 358.139 63.2913 359.067 63.998 359.936ZM61.5617 362.329C60.5185 361.046 59.6882 360.089 59.0709 359.457L50.6286 366.319L52.471 368.585C53.3124 369.619 54.1316 370.5 54.9288 371.226C55.7467 371.936 56.538 372.444 57.3027 372.75C58.1049 373.06 58.9115 373.144 59.7226 373C60.5337 372.856 61.3738 372.431 62.2428 371.724C63.0705 371.052 63.6187 370.331 63.8875 369.563C64.1731 368.815 64.2439 368.036 64.1 367.225C63.9936 366.418 63.708 365.602 63.2432 364.777C62.7784 363.952 62.2179 363.136 61.5617 362.329Z" fill="black"/>
<path d="M72.8212 380.039C73.042 380.271 73.2712 380.549 73.5086 380.876C73.7838 381.203 74.0305 381.539 74.2486 381.884C74.4861 382.21 74.6863 382.516 74.8492 382.803C75.0499 383.091 75.1861 383.311 75.2579 383.464L72.471 385.236C72.3458 384.95 72.0922 384.51 71.7102 383.916C71.3659 383.323 70.8256 382.641 70.0895 381.869C69.6109 381.367 69.0745 380.921 68.4802 380.529C67.9236 380.139 67.5524 379.885 67.3665 379.767L54.714 391.827L52.1466 389.135L66.5653 375.392C67.4042 375.808 68.3711 376.397 69.466 377.158C70.5801 377.901 71.6985 378.862 72.8212 380.039Z" fill="black"/>
<path d="M81.8937 403.461C80.778 404.681 79.5932 405.621 78.3391 406.281C77.0851 406.941 75.8093 407.329 74.5119 407.443C73.2342 407.576 71.9725 407.434 70.7268 407.018C69.4991 406.583 68.3636 405.888 67.3203 404.934C66.277 403.981 65.4833 402.912 64.9394 401.729C64.4135 400.526 64.1496 399.273 64.1478 397.971C64.1657 396.687 64.4473 395.391 64.9927 394.083C65.5381 392.775 66.3686 391.511 67.4843 390.291C68.582 389.091 69.7578 388.161 71.0119 387.501C72.2839 386.821 73.5588 386.415 74.8365 386.282C76.1339 386.167 77.3965 386.328 78.6242 386.764C79.8699 387.18 81.0144 387.864 82.0577 388.818C83.101 389.771 83.8857 390.85 84.4116 392.053C84.9555 393.237 85.2185 394.47 85.2007 395.754C85.2025 397.057 84.9217 398.371 84.3583 399.699C83.8129 401.007 82.9914 402.261 81.8937 403.461ZM79.0295 400.843C80.613 399.112 81.47 397.384 81.6003 395.661C81.7683 393.936 81.183 392.462 79.8444 391.238C78.5058 390.015 76.975 389.555 75.2519 389.859C73.5665 390.161 71.932 391.177 70.3485 392.909C68.7649 394.641 67.8892 396.369 67.7212 398.094C67.5909 399.817 68.195 401.291 69.5336 402.514C70.8722 403.737 72.3842 404.198 74.0696 403.896C75.7927 403.593 77.446 402.575 79.0295 400.843Z" fill="black"/>
<path d="M70.8586 417.367C70.6096 417.166 70.3132 416.875 69.9693 416.495C69.6254 416.114 69.3605 415.763 69.1746 415.441L71.4587 413.379C71.6159 413.608 71.8126 413.853 72.0488 414.112C72.2849 414.372 72.5171 414.593 72.7453 414.778C73.7412 415.582 74.6979 415.841 75.6157 415.554C76.5374 415.304 77.4759 414.588 78.4312 413.406L91.2779 397.51L94.172 399.847L81.3505 415.713C79.6744 417.787 77.957 418.936 76.1982 419.161C74.4434 419.423 72.6635 418.825 70.8586 417.367ZM95.0726 395.742C94.5539 395.323 94.2419 394.797 94.1367 394.163C94.0689 393.526 94.2697 392.917 94.739 392.336C95.2082 391.755 95.7533 391.441 96.3742 391.395C97.0325 391.344 97.621 391.528 98.1397 391.947C98.6583 392.365 98.9515 392.894 99.0193 393.531C99.1246 394.165 98.9426 394.772 98.4733 395.352C98.004 395.933 97.4402 396.249 96.7818 396.3C96.161 396.347 95.5912 396.161 95.0726 395.742Z" fill="black"/>
<path d="M90.1679 410.196C91.2378 408.699 92.3851 407.553 93.6099 406.756C94.8502 405.938 96.092 405.416 97.3353 405.19C98.5786 404.964 99.7986 405 100.995 405.298C102.192 405.596 103.279 406.094 104.255 406.792C106.534 408.419 107.769 410.383 107.96 412.683C108.168 414.961 107.233 417.554 105.155 420.461C105.062 420.591 104.938 420.764 104.783 420.981C104.643 421.176 104.5 421.353 104.355 421.511L92.767 413.233C91.6412 415.083 91.1976 416.781 91.436 418.328C91.6745 419.874 92.7377 421.322 94.6256 422.671C95.6888 423.431 96.6406 423.979 97.4807 424.318C98.358 424.649 99.0432 424.86 99.5361 424.95L98.1451 427.791C97.6367 427.722 96.8384 427.463 95.7502 427.014C94.6838 426.579 93.5646 425.944 92.3928 425.107C90.9173 424.052 89.792 422.921 89.0171 421.712C88.2795 420.497 87.8425 419.251 87.7064 417.974C87.5702 416.696 87.7084 415.402 88.1209 414.091C88.5707 412.774 89.253 411.476 90.1679 410.196ZM102.974 416.838C103.973 415.487 104.424 414.122 104.328 412.743C104.27 411.357 103.622 410.223 102.385 409.339C101.691 408.843 100.971 408.542 100.227 408.436C99.5205 408.325 98.8276 408.354 98.1485 408.524C97.4695 408.694 96.82 408.984 96.1998 409.393C95.6014 409.818 95.0603 410.299 94.5765 410.839L102.974 416.838Z" fill="black"/>
<path d="M109.281 436.075C107.844 435.203 106.717 434.208 105.899 433.088C105.104 431.982 104.58 430.79 104.325 429.513C104.094 428.25 104.134 426.949 104.448 425.611C104.774 424.25 105.353 422.886 106.183 421.518C107.013 420.15 107.968 419.014 109.047 418.11C110.149 417.219 111.314 416.585 112.542 416.207C113.784 415.806 115.067 415.696 116.393 415.876C117.755 416.047 119.086 416.527 120.386 417.316C121.184 417.8 121.94 418.352 122.655 418.973C123.37 419.594 124.003 420.274 124.553 421.013L122.195 423.279C121.854 422.76 121.406 422.239 120.851 421.715C120.318 421.205 119.699 420.735 118.992 420.306C117.213 419.227 115.506 418.956 113.871 419.492C112.258 420.042 110.801 421.388 109.501 423.531C108.92 424.488 108.49 425.428 108.211 426.35C107.954 427.286 107.881 428.177 107.992 429.024C108.124 429.884 108.459 430.695 108.995 431.457C109.545 432.196 110.344 432.884 111.393 433.52C112.237 434.032 113.049 434.415 113.83 434.671C114.611 434.926 115.25 435.08 115.749 435.133L114.574 438.07C114.323 438.073 113.991 438.028 113.58 437.934C113.183 437.818 112.747 437.663 112.272 437.468C111.784 437.297 111.275 437.081 110.745 436.823C110.225 436.601 109.737 436.351 109.281 436.075Z" fill="black"/>
<path d="M129.339 422.905L136.343 426.519L134.911 429.291L127.908 425.677L123.504 434.207C123.027 435.131 122.701 435.937 122.525 436.627C122.361 437.292 122.33 437.876 122.431 438.378C122.544 438.857 122.777 439.277 123.13 439.64C123.483 440.002 123.944 440.33 124.513 440.623C125.509 441.137 126.358 441.44 127.06 441.533C127.799 441.614 128.311 441.668 128.597 441.696L127.824 444.762C127.406 444.757 126.722 444.659 125.77 444.467C124.806 444.3 123.791 443.941 122.724 443.391C121.468 442.742 120.505 442.05 119.834 441.314C119.2 440.567 118.799 439.745 118.631 438.848C118.464 437.952 118.512 436.986 118.776 435.952C119.076 434.907 119.544 433.768 120.18 432.536L128.694 416.046L132.293 417.184L129.339 422.905Z" fill="black"/>
<path d="M158.765 424.701C159.788 425.085 160.634 425.488 161.302 425.909C161.995 426.34 162.468 426.674 162.721 426.911L160.961 429.668C160.717 429.406 160.344 429.109 159.842 428.779C159.348 428.423 158.702 428.095 157.903 427.795C156.28 427.187 154.975 427.21 153.989 427.866C153.012 428.496 152.242 429.56 151.68 431.058L151.048 432.743L158.54 435.552L157.444 438.473L149.953 435.664L143.744 452.216L140.26 450.91L148.225 429.677C149.161 427.181 150.494 425.488 152.223 424.598C153.962 423.684 156.142 423.718 158.765 424.701Z" fill="black"/>
<path d="M173.656 450.655C173.214 452.247 172.583 453.622 171.764 454.778C170.945 455.934 169.983 456.857 168.878 457.547C167.799 458.244 166.61 458.689 165.311 458.882C164.019 459.049 162.692 458.944 161.33 458.566C159.968 458.188 158.776 457.594 157.755 456.785C156.741 455.95 155.939 454.953 155.348 453.793C154.782 452.64 154.446 451.357 154.34 449.944C154.234 448.531 154.402 447.028 154.845 445.435C155.28 443.868 155.907 442.506 156.726 441.35C157.552 440.168 158.505 439.229 159.584 438.532C160.689 437.842 161.887 437.414 163.179 437.246C164.478 437.054 165.809 437.146 167.171 437.524C168.533 437.902 169.721 438.508 170.735 439.343C171.756 440.152 172.549 441.133 173.115 442.286C173.706 443.446 174.051 444.746 174.15 446.184C174.256 447.597 174.091 449.087 173.656 450.655ZM169.917 449.617C170.545 447.356 170.526 445.428 169.862 443.832C169.231 442.218 168.041 441.169 166.294 440.684C164.546 440.199 162.973 440.482 161.574 441.533C160.208 442.565 159.211 444.212 158.584 446.472C157.956 448.733 157.958 450.671 158.589 452.285C159.254 453.88 160.46 454.921 162.207 455.405C163.955 455.89 165.511 455.617 166.877 454.584C168.276 453.534 169.289 451.878 169.917 449.617Z" fill="black"/>
<path d="M186.363 441.845C186.678 441.901 187.028 441.99 187.413 442.113C187.828 442.213 188.226 442.338 188.606 442.487C188.99 442.609 189.333 442.738 189.634 442.873C189.966 442.986 190.206 443.083 190.355 443.163L189.157 446.241C188.887 446.085 188.422 445.88 187.763 445.628C187.135 445.353 186.295 445.123 185.245 444.937C184.562 444.815 183.865 444.773 183.155 444.809C182.475 444.824 182.025 444.839 181.806 444.854L178.747 462.062L175.084 461.411L178.57 441.801C179.492 441.64 180.62 441.542 181.953 441.508C183.291 441.448 184.761 441.56 186.363 441.845Z" fill="black"/>
<path d="M189.299 453.481C189.445 451.647 189.837 450.074 190.477 448.76C191.118 447.42 191.913 446.333 192.863 445.499C193.812 444.665 194.876 444.067 196.055 443.706C197.234 443.345 198.422 443.212 199.618 443.307C202.41 443.529 204.48 444.576 205.83 446.448C207.181 448.294 207.716 450.998 207.433 454.559C207.42 454.719 207.403 454.932 207.382 455.197C207.363 455.437 207.332 455.661 207.288 455.872L193.091 454.745C193.08 456.911 193.575 458.595 194.576 459.798C195.578 461.001 197.235 461.694 199.548 461.878C200.851 461.981 201.949 461.961 202.843 461.818C203.766 461.651 204.462 461.479 204.931 461.302L205.202 464.453C204.732 464.656 203.914 464.845 202.75 465.02C201.612 465.198 200.325 465.229 198.889 465.115C197.082 464.972 195.534 464.582 194.247 463.944C192.989 463.283 191.972 462.44 191.197 461.415C190.423 460.391 189.874 459.211 189.552 457.875C189.259 456.514 189.175 455.049 189.299 453.481ZM203.698 452.578C203.857 450.905 203.54 449.503 202.747 448.37C201.983 447.213 200.843 446.574 199.328 446.454C198.477 446.386 197.706 446.499 197.014 446.792C196.35 447.06 195.772 447.442 195.277 447.938C194.783 448.433 194.376 449.016 194.055 449.686C193.761 450.358 193.545 451.05 193.409 451.761L203.698 452.578Z" fill="black"/>
<path d="M218.773 465.482C217.093 465.519 215.608 465.286 214.316 464.781C213.051 464.275 211.968 463.552 211.067 462.612C210.192 461.671 209.527 460.553 209.072 459.256C208.616 457.933 208.37 456.471 208.335 454.872C208.299 453.272 208.493 451.801 208.917 450.458C209.368 449.115 210.009 447.954 210.841 446.975C211.672 445.97 212.695 445.187 213.91 444.627C215.151 444.039 216.531 443.729 218.051 443.695C218.984 443.675 219.919 443.734 220.856 443.873C221.792 444.012 222.691 444.246 223.552 444.574L222.782 447.751C222.216 447.497 221.558 447.298 220.808 447.155C220.085 447.011 219.31 446.948 218.483 446.966C216.403 447.012 214.818 447.701 213.727 449.032C212.663 450.362 212.159 452.28 212.214 454.786C212.239 455.905 212.381 456.929 212.642 457.857C212.929 458.784 213.347 459.575 213.895 460.229C214.47 460.883 215.188 461.388 216.049 461.742C216.91 462.07 217.954 462.22 219.18 462.193C220.167 462.171 221.058 462.058 221.854 461.854C222.65 461.649 223.272 461.435 223.72 461.212L224.309 464.32C224.099 464.458 223.795 464.598 223.398 464.74C223.001 464.855 222.549 464.959 222.045 465.05C221.54 465.168 220.996 465.26 220.41 465.326C219.852 465.418 219.306 465.47 218.773 465.482Z" fill="black"/>
<path d="M233.58 461.134C234.453 461.027 235.219 460.92 235.878 460.813C236.56 460.675 237.119 460.526 237.556 460.365L236.802 454.212C236.521 454.112 236.071 454.06 235.453 454.055C234.858 454.02 234.136 454.055 233.289 454.158C232.733 454.227 232.143 454.339 231.517 454.496C230.918 454.65 230.37 454.892 229.873 455.222C229.399 455.521 229.018 455.917 228.729 456.409C228.436 456.875 228.334 457.465 228.422 458.18C228.584 459.503 229.121 460.377 230.033 460.803C230.941 461.202 232.124 461.313 233.58 461.134ZM230.995 442.673C232.478 442.492 233.746 442.538 234.801 442.812C235.879 443.056 236.766 443.498 237.462 444.138C238.182 444.748 238.734 445.527 239.119 446.474C239.5 447.394 239.762 448.436 239.905 449.601L241.486 462.503C241.174 462.595 240.734 462.73 240.165 462.907C239.619 463.054 238.993 463.211 238.288 463.378C237.583 463.545 236.81 463.707 235.97 463.864C235.159 464.044 234.343 464.184 233.522 464.284C232.358 464.427 231.271 464.439 230.262 464.321C229.254 464.203 228.361 463.936 227.585 463.52C226.805 463.079 226.165 462.459 225.664 461.66C225.163 460.862 224.84 459.867 224.694 458.676C224.555 457.538 224.66 456.532 225.009 455.656C225.385 454.777 225.939 454.038 226.672 453.438C227.404 452.838 228.286 452.354 229.315 451.986C230.345 451.618 231.442 451.363 232.607 451.22C232.977 451.175 233.364 451.154 233.768 451.158C234.168 451.136 234.545 451.144 234.899 451.181C235.276 451.189 235.601 451.203 235.872 451.223C236.143 451.244 236.333 451.261 236.442 451.274L236.316 450.242C236.241 449.633 236.102 449.046 235.898 448.48C235.691 447.887 235.388 447.387 234.989 446.979C234.587 446.545 234.065 446.233 233.423 446.043C232.805 445.823 232.02 445.771 231.067 445.888C229.849 446.037 228.788 446.261 227.885 446.56C227.004 446.829 226.35 447.084 225.923 447.324L225.112 444.321C225.562 444.05 226.332 443.755 227.421 443.433C228.507 443.085 229.698 442.832 230.995 442.673Z" fill="black"/>
<path d="M249.004 458.614C250.489 458.293 251.542 457.86 252.161 457.317C252.806 456.768 253.035 456.063 252.849 455.203C252.657 454.317 252.153 453.69 251.336 453.321C250.52 452.952 249.233 452.617 247.476 452.315C246.626 452.172 245.802 452.023 245.005 451.868C244.228 451.682 243.53 451.424 242.913 451.093C242.296 450.763 241.763 450.319 241.315 449.762C240.867 449.204 240.544 448.469 240.346 447.557C239.957 445.759 240.314 444.194 241.417 442.864C242.515 441.508 244.211 440.582 246.505 440.085C247.078 439.961 247.66 439.876 248.25 439.83C248.835 439.758 249.386 439.72 249.904 439.717C250.416 439.688 250.866 439.686 251.254 439.712C251.667 439.731 251.987 439.757 252.212 439.791L252.225 443.062C251.789 442.938 251.131 442.862 250.252 442.834C249.367 442.78 248.338 442.88 247.165 443.134C246.148 443.354 245.307 443.754 244.642 444.335C243.971 444.89 243.728 445.597 243.914 446.457C244.01 446.9 244.173 447.274 244.403 447.579C244.659 447.878 244.987 448.134 245.388 448.348C245.81 448.529 246.306 448.681 246.878 448.803C247.451 448.924 248.13 449.036 248.916 449.139C249.959 449.295 250.899 449.474 251.733 449.675C252.563 449.85 253.289 450.116 253.912 450.472C254.561 450.822 255.102 451.305 255.535 451.921C255.963 452.51 256.282 453.287 256.49 454.251C256.897 456.128 256.501 457.7 255.302 458.969C254.13 460.233 252.253 461.144 249.673 461.702C247.874 462.092 246.433 462.24 245.349 462.147C244.27 462.081 243.531 462.009 243.132 461.932L243.12 458.66C243.571 458.726 244.286 458.817 245.266 458.932C246.246 459.048 247.492 458.941 249.004 458.614Z" fill="black"/>
<path d="M259.762 437.212L267.292 434.887L268.213 437.868L260.683 440.193L263.516 449.365C263.823 450.358 264.155 451.163 264.513 451.778C264.862 452.368 265.249 452.806 265.673 453.094C266.089 453.356 266.55 453.493 267.056 453.504C267.562 453.516 268.12 453.427 268.732 453.238C269.802 452.907 270.62 452.529 271.187 452.103C271.77 451.644 272.174 451.324 272.397 451.143L273.994 453.874C273.693 454.162 273.135 454.571 272.322 455.102C271.517 455.657 270.541 456.112 269.394 456.466C268.044 456.883 266.871 457.064 265.877 457.008C264.901 456.919 264.039 456.613 263.291 456.09C262.543 455.567 261.901 454.845 261.365 453.922C260.847 452.966 260.383 451.825 259.973 450.5L254.496 432.768L257.862 431.059L259.762 437.212Z" fill="black"/>
</g>
<g filter="url(#filter2_d_42_3399)">
<path fill-rule="evenodd" clip-rule="evenodd" d="M296.185 98.079C335.765 89.2212 372.435 99.7305 392.143 129.748C411.852 159.766 406.697 207.399 402.427 228.424C398.158 249.449 387.328 268.707 373.886 285.425C348.919 316.478 315.181 340.241 277.463 353.068C239.746 365.896 198.795 368.526 159.489 362.037C137.439 358.396 68.4672 340.563 53.5787 286.746C38.6902 232.928 29.2676 186.932 61.5089 168.247C93.7502 149.563 116.083 163.616 132.044 170.527C206.612 202.812 256.605 106.937 296.185 98.079Z" fill="#B2ABFF"/>
</g>
<path fill-rule="evenodd" clip-rule="evenodd" d="M351.92 148.487C358.269 147.997 365.113 148.314 370.287 152.025C375.461 155.737 377.811 163.887 373.563 168.629C378.366 166.752 384.011 169.936 386.417 174.496C388.823 179.057 388.698 184.521 387.974 189.626C386.181 202.268 381.026 214.419 373.18 224.494C372.819 225.557 372.458 226.619 372.098 227.681C381.372 230.071 417.587 244.132 407.802 278.795C398.017 313.458 355.283 326.651 350.909 330.799C343.285 338.03 331.648 338.525 321.144 338.191C295.318 337.372 269.57 334.091 244.364 328.406C242.221 327.923 239.507 327.629 238.271 329.445C229.33 342.588 210.632 343.763 194.775 342.619C174.406 341.149 154.154 338.061 134.273 333.392C122.996 330.744 111.021 327.056 103.995 317.848C95.8055 307.114 96.7513 292.23 98.0802 278.795C92.6972 281.787 83.7692 283.407 71.2961 283.656C63.9523 282.159 59.3714 279.498 57.5534 275.672C49.2401 258.179 46.3893 235.637 56.7417 218.395C57.9853 216.324 59.4202 214.283 61.4451 212.965C63.592 211.567 66.2093 211.108 68.7611 210.882C78.826 209.991 89.1528 212.339 97.8415 217.496C97.7639 189.264 97.6863 161.031 97.6088 132.799C97.6043 131.182 97.6268 129.466 98.489 128.098C99.736 126.12 102.291 125.507 104.59 125.078C125.506 121.174 146.659 118.541 167.894 117.199C174.833 116.76 184.328 118.691 184.36 125.641C184.481 152.259 184.602 178.876 184.723 205.493C184.752 211.829 185.159 211.299 188.128 209.463C186.261 209.656 186.678 206.492 188.092 205.259C193.372 200.658 201.066 200.488 208.07 200.56C223.737 200.72 239.404 200.881 255.07 201.041C270.25 201.196 288.454 203.121 295.326 216.653C295.127 212.631 298.773 208.836 302.8 208.873C307.193 208.913 310.866 205.104 312.148 200.904C313.431 196.703 312.865 192.19 312.288 187.837C305.206 180.981 303.352 169.326 307.957 160.612C312.562 151.897 323.237 146.86 332.894 148.845C339.131 150.128 345.571 148.977 351.92 148.487ZM170.13 279.052C169.921 284.656 169.701 290.335 168.051 295.695L170.13 279.052ZM163.639 210.276C165.097 210.702 166.901 211.995 166.136 213.307C172.47 213.94 170.579 213.647 170.864 206.184C171.153 198.612 171.177 190.239 166.218 184.507C161.83 179.436 154.674 177.85 147.991 177.279C140.191 176.613 132.307 176.933 124.586 178.229C120.819 178.861 116.739 179.95 114.553 183.082C113.329 184.834 112.879 186.999 112.52 189.106C111.106 197.393 110.664 205.846 111.207 214.235C127.447 206.682 146.448 205.247 163.639 210.276ZM304.578 265.912C304.975 265.512 305.577 265.414 306.135 265.337C308.367 265.03 310.599 264.723 312.831 264.416C307.709 262.104 304.605 256.61 303.677 251.069C302.75 245.527 303.655 239.861 304.57 234.318C301.294 237.963 301.53 243.462 301.959 248.344C302.898 259.029 304.181 266.313 304.578 265.912ZM262.441 318.54C262.879 317.113 264.374 316.346 265.468 315.33C267.437 313.5 268.168 310.734 268.811 308.124C271.031 299.104 273.264 289.975 273.236 280.687C273.231 278.719 273.131 276.698 273.782 274.841C274.434 272.984 276.067 271.305 278.035 271.295C280.111 271.285 280.607 268.407 280.421 266.34C279.781 259.215 279.141 252.089 278.502 244.963C278.297 242.687 278.089 240.39 277.398 238.211C274.844 230.158 265.001 225.289 257.047 228.144C256.073 228.493 255.813 229.723 255.703 230.751C254.479 242.149 253.254 253.548 252.03 264.946C251.813 266.971 254.428 268.263 256.403 267.762C258.377 267.26 259.885 265.718 261.592 264.607C263.3 263.495 265.706 262.856 267.274 264.156C269.046 265.627 271.669 263.993 273.208 262.281C274.747 260.569 276.752 258.505 278.941 259.219C276.373 261.675 273.805 264.13 271.237 266.586C270.386 267.4 269.635 269.027 270.711 269.508C273.661 268.462 276.328 266.628 278.362 264.249C279.302 264.219 279.346 265.695 278.822 266.476C276.845 269.417 272.192 270.072 270.994 273.407C268.198 281.191 259.477 286.361 251.304 285.081C249.627 284.819 248.792 287.023 248.59 288.708C247.785 295.424 246.981 302.141 246.176 308.858C245.991 310.403 245.818 312.037 246.455 313.458C247.516 315.827 250.356 316.724 252.874 317.362C256.202 318.205 259.568 319.052 262.97 319.42C264.403 319.575 264.397 319.05 262.441 318.54ZM129.853 306.225C134.609 307.817 139.642 308.357 144.629 308.887C146.743 309.111 148.995 309.312 150.893 308.352C153.126 307.221 154.316 304.77 155.276 302.459C160.632 289.57 163.69 275.731 164.264 261.786C164.345 259.804 161.808 258.93 159.828 258.797C144.027 257.737 128.916 264.68 114.606 271.462C113.92 271.787 113.186 272.158 112.847 272.837C112.595 273.343 112.608 273.935 112.627 274.501C112.883 282.205 113.206 290.185 116.653 297.08C117.584 298.942 118.767 300.734 120.444 301.969C121.459 302.718 122.621 303.237 123.773 303.75C125.773 304.64 127.778 305.53 129.853 306.225ZM232.07 277.713C234.176 266.389 235.66 254.95 236.514 243.464C236.806 239.535 237.02 235.54 236.17 231.692C235.321 227.845 233.27 224.104 229.919 222.031C227.854 220.753 225.437 220.179 223.046 219.753C218.683 218.975 214.245 218.622 209.813 218.7C205.903 218.77 201.799 219.246 198.607 221.505C197.551 222.252 196.593 223.23 196.207 224.464C195.822 225.698 196.146 227.214 197.217 227.939C199.923 229.772 201.027 233.2 201.534 236.428C202.041 239.657 202.163 243.037 203.634 245.955C204.393 247.46 205.481 248.773 206.622 250.013C212.809 256.738 220.879 261.713 229.668 264.221C231.213 264.661 233.179 265.616 232.852 267.188C237.713 270.254 231.989 278.148 232.07 277.713ZM218.675 311.112C220.464 310.025 221.678 308.216 222.746 306.415C227.278 298.775 230.25 290.215 231.426 281.41C215.124 281.337 198.919 275.187 186.673 264.428C186.254 266.109 186.334 267.869 186.391 269.601C186.749 280.415 186.107 291.261 184.477 301.957C184.088 304.507 185.612 307.056 187.706 308.562C189.801 310.067 192.381 310.714 194.914 311.202C200.625 312.302 206.46 312.753 212.272 312.543C214.483 312.464 216.784 312.26 218.675 311.112ZM321.548 217.839C320.598 215.549 319.885 212.968 317.914 211.465C315.942 209.962 312.23 210.697 312.114 213.173C314.065 212.814 315.557 215.222 315.224 217.177C314.892 219.133 313.47 220.687 312.34 222.318C310.779 224.571 309.712 227.121 308.655 229.65C306.143 235.667 305.165 242.317 305.839 248.803C306.236 252.621 307.282 256.544 309.865 259.385C312.447 262.226 316.874 263.646 320.277 261.868C323.2 260.341 324.658 256.974 325.328 253.745C325.999 250.517 326.118 247.138 327.384 244.093C329.72 238.477 335.482 235.084 341.181 232.954C332.613 231.79 324.862 225.822 321.548 217.839ZM297.858 223.914C298.239 225.386 298.766 226.821 299.43 228.189C299.828 226.261 300.468 224.383 301.329 222.612C300.458 222.513 299.581 222.465 298.704 222.47C298.491 222.472 298.266 222.479 298.086 222.593C297.681 222.85 297.738 223.45 297.858 223.914ZM194.593 222.399C194.053 222.833 193.737 223.767 194.306 224.161C195.179 223.288 196.051 222.415 196.923 221.542C196.742 221.318 196.48 221.162 196.198 221.111C195.852 221.71 195.132 221.965 194.593 222.399Z" fill="white"/>
<path d="M345.612 216.144C347.475 216.144 348.986 214.635 348.986 212.772C348.986 210.909 347.475 209.399 345.612 209.399C343.749 209.399 342.239 210.909 342.239 212.772C342.239 214.635 343.749 216.144 345.612 216.144Z" fill="#B2ABFF"/>
<path d="M326.292 212.772C327.309 212.772 328.132 211.948 328.132 210.932C328.132 209.916 327.309 209.093 326.292 209.093C325.276 209.093 324.452 209.916 324.452 210.932C324.452 211.948 325.276 212.772 326.292 212.772Z" fill="#B2ABFF"/>
<path fill-rule="evenodd" clip-rule="evenodd" d="M152.06 164.378C157.58 164.413 163.1 164.448 168.62 164.483C168.878 164.485 169.156 164.492 169.364 164.645C169.79 164.958 169.62 165.69 169.182 165.984C168.743 166.279 168.175 166.266 167.647 166.248C162.789 166.079 157.917 166.332 153.103 167.001C152.371 167.103 151.598 167.21 150.914 166.931C150.229 166.653 149.705 165.833 150.02 165.165C150.349 164.467 151.288 164.373 152.06 164.378ZM133.601 163.836C133.951 164.185 133.783 164.825 133.395 165.129C133.006 165.434 132.486 165.495 131.994 165.545C127.101 166.04 122.207 166.536 117.313 167.031C116.735 167.089 116.136 167.146 115.583 166.968C115.029 166.79 114.528 166.311 114.515 165.73C114.501 165.13 115.011 164.621 115.58 164.429C116.148 164.238 116.766 164.291 117.364 164.339C122.379 164.733 127.442 164.505 132.4 163.663C132.815 163.593 133.303 163.539 133.601 163.836ZM132.916 154.445C133.281 154.74 133.151 155.372 132.784 155.666C132.418 155.959 131.918 156.008 131.45 156.045L115.734 157.284C115.146 157.331 114.536 157.375 113.981 157.174C113.426 156.973 112.94 156.456 112.971 155.867C113.004 155.27 113.555 154.807 114.136 154.666C114.717 154.525 115.325 154.631 115.917 154.718C121.251 155.506 126.675 154.788 132.044 154.299C132.345 154.272 132.68 154.255 132.916 154.445ZM154.864 151.332C158.143 151.751 161.468 151.815 164.761 151.522C166.07 151.405 167.652 151.351 168.396 152.434C167.513 153.147 166.3 153.249 165.167 153.32C161.412 153.557 157.657 153.793 153.902 154.03C153.045 154.084 151.978 154.019 151.625 153.237C151.308 152.535 151.865 151.691 152.581 151.406C153.297 151.122 154.1 151.234 154.864 151.332ZM126.535 147.318C126.539 147.885 125.828 148.13 125.267 148.212L117.014 149.422C116.425 149.508 115.817 149.593 115.241 149.44C114.666 149.286 114.128 148.829 114.074 148.236C114.009 147.51 114.69 146.898 115.402 146.74C116.113 146.582 116.85 146.747 117.573 146.84C120.066 147.161 122.581 146.613 125.093 146.527C125.707 146.506 126.531 146.703 126.535 147.318ZM166.356 145.343C166.995 145.415 167.65 145.796 167.821 146.415C166.687 147.272 165.188 147.428 163.772 147.554C161.347 147.769 158.923 147.983 156.499 148.198C155.645 148.274 154.791 148.35 153.937 148.425C153.312 148.481 152.663 148.533 152.077 148.311C151.49 148.09 150.989 147.508 151.076 146.887C151.214 145.909 152.498 145.655 153.486 145.677C157.15 145.755 160.861 146.308 164.451 145.571C165.08 145.442 165.718 145.272 166.356 145.343ZM169.575 136.092C151.612 138.514 133.196 137.26 115.48 141.09C114.43 141.318 112.963 141.329 112.692 140.289C112.716 139.064 114.301 138.622 115.524 138.534C132.757 137.306 149.991 136.077 167.225 134.848C168.236 134.776 169.655 135.082 169.575 136.092Z" fill="#E7EAEE"/>
<path fill-rule="evenodd" clip-rule="evenodd" d="M106.389 322.241C106.577 324.414 103.581 325.15 101.4 325.158C90.0636 325.203 78.7385 327.305 68.1416 331.332C66.5244 331.946 64.7935 332.72 64.0064 334.26C62.9642 336.3 64.1017 338.91 65.9456 340.269C67.7895 341.629 70.143 342.043 72.4041 342.411C131.178 351.979 190.826 356.173 250.361 354.924L251.319 354.903C258.185 354.744 265.192 354.375 271.483 351.657C266.275 348.008 261.068 344.36 255.861 340.711C264.875 338.911 274.176 340.193 283.324 341.096C304.262 343.162 325.399 343.204 346.344 341.222C344.87 343.577 341.628 343.904 338.849 343.964C312.502 344.531 286.122 343.595 259.881 341.163C263.305 343.415 266.729 345.668 270.152 347.92C271.393 348.736 272.765 349.772 272.837 351.255C272.945 353.484 270.206 354.596 268.004 354.96C260.696 356.167 253.263 356.359 245.857 356.468C188.021 357.313 130.112 353.175 72.9839 344.116C70.1963 343.674 67.308 343.181 64.9837 341.58C62.6594 339.979 61.0748 336.936 62.0515 334.288C63.023 331.655 65.9788 330.418 68.6475 329.547C80.8599 325.559 93.5704 323.099 106.389 322.241ZM184.36 125.641C184.481 152.259 184.602 178.876 184.723 205.493C184.752 211.829 186 219.845 192.128 221.459C200.596 217.55 210.141 216.007 219.409 217.046C224.715 217.641 230.225 219.244 233.817 223.193C238.744 228.611 238.752 236.769 238.223 244.072C237.15 258.875 235.038 273.603 231.907 288.111C234.395 287.954 236.932 288.951 238.646 290.761C236.006 291.968 232.862 292.018 230.185 290.897C232.023 300.861 223.903 310.692 214.179 313.546C204.454 316.4 193.902 313.709 184.758 309.34C183.9 312.679 188.368 314.641 191.779 315.145C200.438 316.424 209.096 317.704 217.755 318.983C207.062 319.304 196.333 318.429 185.833 316.379C183.9 319.117 188.278 321.88 191.587 322.416C200.364 323.836 209.14 325.256 217.917 326.676C208.004 326.61 198.095 325.949 188.261 324.698C194.515 330.339 203.052 333.371 211.464 332.94C206.719 334.501 201.447 334.407 196.761 332.679C202.624 340.528 214.618 341.982 223.378 337.592C232.138 333.201 237.857 324.219 240.655 314.831C243.453 305.443 243.724 295.52 244.22 285.737C245.135 267.677 246.884 249.642 250.049 231.838C252.18 219.849 257.414 205.553 269.476 203.859C247.987 202.869 226.478 202.335 204.967 202.258C198.43 202.234 190.31 203.303 188.128 209.463C186.261 209.656 186.678 206.492 188.092 205.259C193.372 200.658 201.066 200.488 208.07 200.56L255.07 201.041C270.25 201.196 288.454 203.121 295.326 216.653C295.127 212.631 298.773 208.836 302.8 208.873C307.193 208.913 310.866 205.104 312.148 200.904C313.43 196.703 312.865 192.19 312.288 187.837C305.206 180.981 303.352 169.326 307.957 160.612C309.26 158.147 311.184 152.27 321.933 148.487C329.099 145.965 336.182 146.242 343.183 149.319C356.33 146.777 365.365 147.679 370.287 152.025C377.67 158.544 377.811 163.887 373.563 168.629C378.366 166.752 384.011 169.936 386.417 174.496C388.823 179.057 388.698 184.521 387.974 189.626C386.181 202.268 381.026 214.419 373.179 224.494L372.098 227.681C391.078 232.573 406.433 249.345 409.63 268.679C403.32 254.459 394.777 239.399 380.059 234.351C376.738 237.834 373.323 241.468 371.763 246.02C370.203 250.573 371.046 256.325 375.001 259.067C372.517 259.642 370.033 260.218 367.549 260.794C368.376 262.26 369.203 263.726 370.03 265.192C360.643 272.326 359.564 285.819 359.62 297.606C359.677 309.393 359.463 322.687 350.909 330.799C343.285 338.03 331.648 338.525 321.144 338.191C295.318 337.372 269.57 334.091 244.364 328.406C242.221 327.923 239.506 327.629 238.271 329.445C229.33 342.588 210.632 343.763 194.775 342.618C174.405 341.149 154.153 338.06 134.272 333.392C122.996 330.744 111.021 327.056 103.995 317.848C95.8055 307.114 96.7512 292.23 98.0802 278.795C90.0057 283.283 80.4334 285.02 71.2961 283.656C80.9278 277.361 85.5984 265.318 85.6862 253.813C85.7739 242.309 81.933 231.159 77.6597 220.477C68.2443 225.936 63.2905 237.444 64.0272 248.301C64.7639 259.158 70.5256 269.235 78.2562 276.895C68.7265 270.883 62.4207 260.051 61.8987 248.797C61.3768 237.543 66.653 226.174 75.5853 219.306C74.158 214.426 66.7941 213.829 62.9346 217.14C59.0752 220.451 57.8639 225.825 56.8712 230.812C55.0367 240.025 53.1948 249.454 54.5276 258.754C55.8604 268.053 60.9987 277.362 69.6089 281.125C65.5851 284.024 60.2257 279.85 57.5534 275.672C46.7165 258.73 46.3892 235.637 56.7417 218.395C57.9853 216.324 59.4201 214.283 61.4451 212.965C63.592 211.567 66.2093 211.108 68.7611 210.882C78.826 209.991 89.1528 212.339 97.8415 217.496C97.7639 189.264 97.6863 161.031 97.6087 132.799C97.6043 131.182 97.6268 129.466 98.489 128.098C99.736 126.12 102.291 125.507 104.59 125.078C125.506 121.174 146.659 118.541 167.894 117.199C174.833 116.76 184.328 118.691 184.36 125.641ZM170.177 118.9C147.663 119.96 125.231 122.742 103.14 127.215C102.2 127.405 101.205 127.628 100.521 128.301C99.5905 129.217 99.5185 130.67 99.5062 131.976C99.2424 160.088 99.354 188.203 99.8408 216.312C102.544 215.638 105.248 214.965 107.951 214.291C106.894 208.523 105.833 202.677 106.285 196.83C106.737 190.984 108.883 185.038 113.297 181.177C118.074 176.997 124.741 175.816 131.073 175.372C137.163 174.944 143.289 175.043 149.362 175.667C155.561 176.304 162.091 177.681 166.563 182.019C173.023 188.286 173.128 198.439 172.793 207.432C171.905 231.305 171.018 255.179 170.13 279.052C169.921 284.656 169.701 290.335 168.051 295.695C166.401 301.055 163.127 306.149 158.173 308.779C153.312 311.36 147.495 311.287 142.026 310.665C136.804 310.072 131.633 309.037 126.586 307.575C123.519 306.687 120.452 305.618 117.846 303.775C109.223 297.674 108.204 285.502 107.995 274.943C104.684 274.346 101.447 276.865 100.08 279.938C98.713 283.012 98.7736 286.504 98.8585 289.866C99.0703 298.253 99.3972 307.059 103.68 314.275C110.288 325.407 124.167 329.52 136.84 332.178C159.333 336.897 182.17 339.974 205.11 341.377C194.872 336.164 185.795 327.242 183.636 315.96C183.049 312.896 182.986 309.759 182.925 306.639C181.73 245.641 180.535 184.643 179.339 123.645C179.264 119.788 174.032 118.719 170.177 118.9ZM257.453 219.047C256.884 220.436 256.47 221.976 256.849 223.428C257.228 224.88 258.639 226.148 260.12 225.901C266.752 224.797 273.901 228.063 277.406 233.798C280.299 238.53 280.701 244.32 281.027 249.856L283.993 300.287C284.31 305.676 284.466 311.607 281.116 315.84C276.769 321.334 268.607 321.517 261.634 320.835C255.881 320.272 249.828 319.316 245.361 315.647C245.52 317.782 244.897 319.967 243.637 321.698C242.081 323.835 244.592 326.647 247.035 327.657C250.019 328.891 253.263 329.321 256.465 329.737C271.131 331.64 285.805 333.475 300.488 335.242C311.789 336.602 323.272 337.92 334.507 336.094C327.399 334.1 320.598 331.018 314.412 326.989C311.326 324.978 308.343 322.682 306.238 319.66C302.802 314.727 302.078 308.459 301.507 302.475C299.807 284.682 298.542 266.847 297.712 248.993C297.101 235.823 292.877 222.839 285.623 211.83C284.325 209.861 282.739 207.818 280.445 207.27C271.327 205.091 261.011 210.375 257.453 219.047ZM215.642 333.011C216.416 333.143 217.209 333.316 217.847 333.773C218.485 334.23 218.929 335.042 218.733 335.802C218.537 336.561 217.534 337.061 216.901 336.598C216.202 336.087 215.272 336.069 214.439 335.834C213.606 335.598 212.733 334.907 212.882 334.054C213.072 332.974 214.56 332.828 215.642 333.011ZM183.529 333.332C184.489 333.532 185.612 334.216 185.416 335.176C185.242 336.022 184.195 336.304 183.338 336.419C182.378 336.547 181.353 336.666 180.481 336.243C179.609 335.821 179.043 334.631 179.615 333.849C180.001 333.322 180.723 333.182 181.376 333.155C182.097 333.126 182.822 333.185 183.529 333.332ZM240.942 322.662C240.031 323.319 239.406 324.287 238.763 325.208C235.833 329.404 232.12 333.052 227.871 335.907C227.978 336.358 228.653 336.244 229.053 336.012C233.972 333.162 237.483 328.455 240.852 323.877C241.128 323.503 241.355 322.876 240.942 322.662ZM284.929 209.29C287.553 212.388 290.198 215.515 292.118 219.093C294.199 222.972 295.369 227.269 296.31 231.569C301.577 255.623 300.171 280.63 303.585 305.015C304.2 309.415 305.015 313.909 307.305 317.717C309.988 322.178 314.44 325.27 318.976 327.825C322.644 329.891 326.474 331.706 330.503 332.93C336.909 334.877 344.606 335.013 349.517 330.462C352.275 327.907 353.725 324.261 354.858 320.677C359.715 305.313 360.249 288.608 356.384 272.966C356.481 282.321 357.696 291.655 357.418 301.007C357.14 310.358 355.22 319.988 349.721 327.559C348.632 329.059 347.369 330.498 345.723 331.35C343.556 332.473 340.98 332.452 338.556 332.156C334.323 331.639 330.184 330.36 326.398 328.399C323.521 326.91 320.86 325.038 318.282 323.078C315.284 320.799 312.342 318.345 310.242 315.22C308.16 312.123 307 308.506 306.08 304.89C299.361 278.488 304.165 250.009 296.192 223.958C294.313 217.819 291.05 211.232 284.929 209.29ZM124.636 325.438C140.147 327.831 155.658 330.225 171.169 332.619C170.776 333.644 169.357 333.68 168.268 333.535C155.003 331.763 141.738 329.992 128.473 328.22C126.973 328.02 125.473 327.819 123.974 327.619C123.262 327.524 122.378 327.266 122.288 326.554C122.161 325.55 123.635 325.284 124.636 325.438ZM304.57 234.318C301.294 237.963 301.53 243.462 301.959 248.344C302.898 259.029 303.838 269.713 304.777 280.398C304.821 280.898 304.874 281.424 305.167 281.832C305.647 282.498 306.575 282.614 307.394 282.671C318.546 283.457 329.697 284.242 340.849 285.028C340.015 286.346 338.136 286.365 336.581 286.245C326.082 285.435 315.541 285.173 305.015 285.459C304.833 290.856 305.629 296.284 307.351 301.401C308.098 303.62 310.973 304.092 313.312 304.187C322.232 304.548 331.152 304.909 340.071 305.27C340.482 306.194 339.04 306.771 338.03 306.759C328.861 306.654 319.692 306.548 310.524 306.443C309.268 306.428 308.813 308.207 309.287 309.37C310.523 312.41 314.461 313.064 317.737 313.269L338.236 314.553C338.704 314.582 338.801 315.317 338.46 315.638C338.118 315.959 337.597 315.968 337.129 315.958L313.128 315.449C319.334 322.833 328.037 328.08 337.466 330.12C339.497 330.56 341.651 330.848 343.625 330.197C345.987 329.418 347.728 327.413 349.092 325.333C356.323 314.303 355.842 300.112 355.103 286.945L354.266 272.02C354.558 271.618 355.159 271.479 355.599 271.711C355.768 270.98 354.816 270.545 354.078 270.41C337.764 267.414 321.024 264.413 304.698 267.339C304.176 267.125 304.181 266.313 304.578 265.912C304.975 265.512 305.577 265.414 306.135 265.337C308.367 265.03 310.599 264.723 312.831 264.416C307.709 262.104 304.605 256.61 303.677 251.069C302.75 245.527 303.655 239.861 304.57 234.318ZM224.391 325.046C225.844 325.317 227.522 325.761 228.089 327.125C226.471 328.227 224.347 328.114 222.395 327.958C221.858 327.915 221.271 327.85 220.894 327.466C220.227 326.786 220.725 325.532 221.584 325.119C222.442 324.706 223.454 324.872 224.391 325.046ZM113.726 315.076C130.437 320.326 147.755 323.645 165.223 324.946C166.578 325.047 168.399 325.693 168.139 327.026C149.665 324.937 131.303 321.85 113.161 317.782C112.004 317.523 110.518 316.699 110.949 315.593C111.328 314.622 112.731 314.764 113.726 315.076ZM174.935 323.179C175.788 323.177 176.612 323.469 177.41 323.773C177.815 323.927 178.262 324.126 178.419 324.53C178.754 325.392 177.565 326.009 176.655 326.174C176.042 326.285 175.43 326.396 174.817 326.507C174.3 326.601 173.744 326.69 173.268 326.467C172.496 326.105 172.295 324.99 172.738 324.261C173.181 323.532 174.082 323.181 174.935 323.179ZM253.628 321.337C261.02 322.743 268.591 322.822 276.116 322.898C276.698 322.903 276.855 323.819 276.439 324.227C276.023 324.634 275.374 324.652 274.792 324.641C267.768 324.503 260.735 323.763 253.731 324.315C252.969 324.375 252.177 324.446 251.461 324.178C250.745 323.91 250.135 323.186 250.271 322.434C250.388 321.786 251.02 321.331 251.667 321.206C252.315 321.081 252.98 321.214 253.628 321.337ZM270.327 205.485C261.958 206.735 254.926 214.182 254.161 222.608C253.447 230.477 251.274 238.129 249.727 245.878C244.761 270.762 246.267 296.551 241.876 321.542C243.48 318.623 243.913 315.224 244.317 311.918L254.964 224.743C255.247 222.424 255.537 220.077 256.371 217.894C258.648 211.928 264.536 208.18 270.327 205.485ZM232.273 318.391C232.729 318.535 233.196 318.726 233.5 319.095C233.804 319.464 233.88 320.061 233.548 320.405C233.297 320.665 232.905 320.712 232.545 320.743C231.369 320.847 230.192 320.951 229.016 321.055C228.381 321.111 227.725 321.165 227.12 320.964C226.514 320.764 225.969 320.24 225.951 319.603C225.921 318.523 227.253 317.981 228.331 317.911C229.659 317.824 231.004 317.987 232.273 318.391ZM257.047 228.144C256.073 228.493 255.813 229.723 255.703 230.751L252.03 264.946C251.813 266.971 254.428 268.263 256.403 267.762C258.377 267.26 259.885 265.718 261.592 264.607C263.3 263.495 265.706 262.856 267.274 264.156C269.046 265.627 271.669 263.993 273.208 262.281C274.747 260.569 276.752 258.505 278.941 259.219C276.373 261.675 273.805 264.13 271.237 266.586C270.386 267.4 269.635 269.027 270.711 269.508C273.661 268.462 276.328 266.628 278.362 264.249C279.302 264.219 279.346 265.695 278.822 266.476C276.845 269.417 272.192 270.072 270.994 273.407C268.198 281.191 259.477 286.361 251.304 285.081C249.627 284.819 248.792 287.023 248.59 288.708C247.785 295.424 246.981 302.141 246.176 308.858C245.991 310.403 245.818 312.037 246.455 313.458C247.516 315.827 250.356 316.724 252.874 317.362C257.603 318.56 262.41 319.766 267.286 319.594C272.162 319.422 277.203 317.679 280.29 313.902C279.436 312.792 277.531 314.215 276.286 313.573C275.067 312.945 275.715 310.853 277.022 310.442C278.33 310.031 279.711 310.684 280.925 311.32C281.688 309.831 282.473 308.239 282.316 306.574C282.159 304.909 280.631 303.262 279 303.637C277.929 303.883 277.492 302.026 278.356 301.346C279.22 300.667 280.461 300.887 281.53 301.141C281.59 297.123 281.649 293.105 281.708 289.086C281.721 288.266 281.723 287.405 281.334 286.683C280.945 285.961 280.023 285.455 279.284 285.811C278.277 286.296 277.404 284.582 278.078 283.69C278.752 282.798 280.024 282.683 281.142 282.644C281.228 279.075 280.997 275.499 280.453 271.971C276.246 274.078 275.51 279.639 275.086 284.324C274.272 293.31 272.635 302.221 270.202 310.909C269.657 312.855 269.044 314.845 267.77 316.415C266.496 317.984 264.397 319.05 262.441 318.54C262.879 317.113 264.374 316.346 265.468 315.33C267.437 313.5 268.168 310.734 268.811 308.124C271.031 299.104 273.264 289.975 273.236 280.687L273.232 280.064C273.218 278.296 273.199 276.502 273.782 274.841C274.434 272.984 276.067 271.305 278.035 271.295C280.111 271.285 280.606 268.407 280.421 266.34C279.781 259.215 279.141 252.089 278.502 244.963C278.297 242.687 278.089 240.39 277.398 238.211C274.844 230.158 265 225.289 257.047 228.144ZM288.365 315.052C289.341 315.314 290.287 316.317 289.882 317.242C289.495 318.125 288.279 318.174 287.319 318.083C286.849 318.038 286.349 317.982 285.981 317.685C285.338 317.165 285.429 316.063 286.032 315.496C286.634 314.929 287.566 314.838 288.365 315.052ZM171.138 314.064C171.78 314.203 172.449 314.39 172.91 314.857C173.371 315.324 173.524 316.157 173.065 316.627C172.691 317.011 172.086 317.018 171.55 316.999C170.779 316.972 170.008 316.945 169.237 316.918C168.791 316.902 168.314 316.876 167.955 316.61C167.189 316.04 167.525 314.706 168.348 314.222C169.17 313.738 170.205 313.862 171.138 314.064ZM111.737 307.072C116.053 309.079 120.795 309.954 125.484 310.77C134.976 312.424 144.496 313.913 154.04 315.237C155.375 315.422 156.854 315.684 157.668 316.759C153.972 317.011 150.279 316.396 146.625 315.783C134.583 313.761 122.54 311.739 110.498 309.717C109.235 309.506 107.605 308.805 107.851 307.549C108.143 306.06 110.362 306.433 111.737 307.072ZM186.673 264.428C186.254 266.109 186.334 267.869 186.391 269.601C186.749 280.415 186.107 291.261 184.477 301.957C184.088 304.507 185.612 307.056 187.706 308.562C189.801 310.067 192.381 310.714 194.914 311.202C200.625 312.302 206.46 312.753 212.272 312.543C214.483 312.464 216.784 312.26 218.675 311.112C220.464 310.025 221.677 308.216 222.746 306.415C227.278 298.775 230.25 290.215 231.426 281.41C215.124 281.337 198.919 275.187 186.673 264.428ZM229.312 307.301C230.425 307.668 231.538 308.035 232.651 308.402C233.022 308.525 233.42 308.667 233.64 308.99C234.012 309.535 233.651 310.333 233.075 310.657C232.5 310.981 231.801 310.964 231.141 310.937C229.939 310.89 228.612 310.788 227.773 309.927C226.934 309.065 227.222 307.207 228.422 307.129C228.725 307.109 229.023 307.205 229.312 307.301ZM287.657 307.462C288.319 307.568 289.018 307.69 289.528 308.124C290.038 308.559 290.248 309.42 289.777 309.898C289.588 310.091 289.325 310.189 289.07 310.278C288.085 310.621 286.99 310.895 286.016 310.522C285.042 310.148 284.378 308.86 284.99 308.016C285.553 307.24 286.711 307.311 287.657 307.462ZM114.606 271.462C113.92 271.787 113.186 272.158 112.847 272.837C112.595 273.343 112.608 273.935 112.627 274.501C112.883 282.205 113.206 290.185 116.653 297.08C117.583 298.942 118.767 300.734 120.444 301.969C121.459 302.718 122.621 303.237 123.773 303.75C125.773 304.64 127.777 305.53 129.853 306.225C134.609 307.817 139.642 308.357 144.629 308.887C146.743 309.111 148.995 309.312 150.893 308.352C153.126 307.221 154.316 304.77 155.276 302.459C160.632 289.57 163.69 275.731 164.264 261.786C164.345 259.804 161.808 258.93 159.828 258.797C144.027 257.737 128.916 264.68 114.606 271.462ZM166.717 261.227C166.312 261.76 166.261 262.473 166.221 263.142C165.276 278.912 161.35 294.499 154.711 308.836C161.036 305.636 165.748 299.422 167.122 292.47C167.595 290.08 167.692 287.633 167.787 285.199C168.087 277.522 168.388 269.846 168.689 262.169C168.705 261.764 168.708 261.319 168.45 261.007C168.024 260.49 167.123 260.694 166.717 261.227ZM169.337 299.638C170.139 299.682 170.893 300.015 171.673 300.209C172.372 300.383 172.583 301.377 172.193 301.982C171.803 302.587 171.051 302.85 170.338 302.95C169.594 303.055 168.794 303.015 168.154 302.622C167.514 302.228 167.099 301.406 167.354 300.699C167.628 299.944 168.534 299.595 169.337 299.638ZM288.118 297.554C288.868 297.709 289.511 298.174 290.129 298.627C290.464 298.872 290.821 299.148 290.931 299.549C291.071 300.061 290.733 300.613 290.268 300.868C289.802 301.123 289.244 301.141 288.715 301.099C287.963 301.039 287.187 300.853 286.619 300.356C286.052 299.859 285.763 298.986 286.117 298.32C286.476 297.643 287.367 297.399 288.118 297.554ZM109.605 273.705C109.4 274.071 109.441 274.519 109.489 274.936L110.604 284.75C111.209 290.076 112.001 295.815 115.724 299.672C116.345 299.377 115.995 298.444 115.604 297.88C112.588 293.528 112.007 287.995 111.517 282.724C111.231 279.634 110.944 276.544 110.657 273.454C110.369 273.15 109.81 273.339 109.605 273.705ZM308.157 293.808C318.387 294.061 328.617 294.313 338.847 294.566C340.412 294.604 341.983 294.643 343.532 294.876C343.208 295.994 341.738 296.204 340.573 296.194C330.315 296.097 320.022 295.462 309.819 296.528C308.947 296.619 308.005 296.709 307.248 296.266C306.491 295.823 306.152 294.608 306.848 294.075C307.208 293.798 307.703 293.797 308.157 293.808ZM280.051 291.799C280.276 291.872 280.507 291.951 280.69 292.1C281.302 292.598 281.074 293.661 280.449 294.141C279.824 294.621 278.98 294.676 278.192 294.696C277.372 294.716 276.415 294.651 275.947 293.977C275.361 293.13 276.058 291.878 277.03 291.534C278.001 291.191 279.072 291.478 280.051 291.799ZM287.53 289.732C288.484 289.835 289.413 290.169 290.213 290.698C290.825 291.102 290.703 292.118 290.146 292.595C289.59 293.072 288.795 293.139 288.062 293.112C287.321 293.086 286.548 292.973 285.948 292.537C285.349 292.1 284.992 291.257 285.313 290.589C285.68 289.827 286.689 289.641 287.53 289.732ZM184.477 266.393C183.919 274.419 183.67 282.468 183.728 290.513C183.731 290.853 183.962 291.337 184.253 291.16C184.869 284.397 185.171 277.605 185.158 270.814C185.156 269.31 185.125 267.75 184.477 266.393ZM173.541 286.984C174.418 287.05 175.193 287.561 175.908 288.073C176.128 288.231 176.355 288.4 176.478 288.641C176.733 289.141 176.427 289.785 175.948 290.077C175.469 290.369 174.876 290.392 174.315 290.366C173.039 290.307 171.436 289.613 171.578 288.344C171.677 287.47 172.663 286.918 173.541 286.984ZM289.656 281.577C290.51 281.928 291.389 282.843 290.948 283.654C290.649 284.203 289.921 284.322 289.296 284.328C288.57 284.335 287.844 284.276 287.129 284.151C286.123 283.976 285.969 282.394 286.749 281.737C287.53 281.08 288.711 281.19 289.656 281.577ZM389.2 265.871C389.552 266.46 389.558 267.186 389.554 267.872C389.524 272.729 389.494 277.587 389.465 282.444C389.461 283.034 389.382 283.748 388.846 283.996C388.383 284.21 387.813 283.91 387.555 283.47C387.298 283.03 387.274 282.495 387.266 281.986C387.191 277.649 387.674 273.21 386.446 269.05C386.081 267.814 385.644 266.27 386.599 265.405C387.345 264.728 388.683 265.007 389.2 265.871ZM264.291 265.309C260.608 267.593 256.735 269.942 252.412 270.254C251.625 270.31 251.271 271.249 251.116 272.022C250.418 275.499 250.032 279.039 249.966 282.585C249.962 282.802 249.964 283.035 250.089 283.211C250.289 283.493 250.695 283.505 251.04 283.487C254.412 283.31 257.831 282.958 260.963 281.696C264.095 280.433 266.944 278.147 268.221 275.021C269.497 271.895 268.883 267.909 266.277 265.762C265.716 265.3 264.909 264.926 264.291 265.309ZM236.097 278.981C237.28 279.292 238.463 279.602 239.647 279.913C240.089 280.029 240.58 280.183 240.792 280.588C241.041 281.066 240.751 281.681 240.3 281.976C239.85 282.271 239.289 282.326 238.753 282.374C237.902 282.45 237.027 282.523 236.21 282.272C235.394 282.021 234.643 281.362 234.549 280.514C234.456 279.665 235.271 278.764 236.097 278.981ZM71.9597 214.254C76.3881 216.047 79.7214 219.925 81.7888 224.232C83.8562 228.538 84.7976 233.286 85.618 237.992C86.9759 245.78 88.0572 253.73 87.0671 261.573C86.077 269.417 82.7974 277.238 76.7175 282.293C81.1463 282.53 86.4343 282.354 88.8386 278.628C89.9176 276.956 92.2399 276.216 94.0877 276.956C92.926 275.952 93.8029 274.082 94.6651 272.812C98.1977 267.606 100.622 261.623 101.488 255.393C103.167 243.312 98.9447 231.068 92.6794 220.602C88.6144 213.812 79.1325 210.906 71.9597 214.254ZM176.961 276.835C177.875 277.195 177.662 278.705 176.808 279.19C175.954 279.674 174.889 279.457 173.937 279.214C173.493 279.102 173.022 278.97 172.721 278.625C172.017 277.82 172.825 276.459 173.867 276.219C174.909 275.979 175.966 276.444 176.961 276.835ZM209.813 218.7C205.903 218.77 201.799 219.246 198.607 221.505C197.551 222.252 196.593 223.23 196.207 224.464C195.821 225.698 196.146 227.214 197.217 227.939C199.923 229.772 201.027 233.2 201.534 236.428C202.041 239.657 202.163 243.037 203.634 245.955C204.393 247.46 205.481 248.773 206.622 250.013C212.809 256.738 220.879 261.713 229.668 264.221C231.213 264.661 233.179 265.616 232.852 267.188C220.208 264.537 208.678 256.909 201.295 246.31C199.052 253.198 194.626 259.359 188.814 263.684C200.152 273.331 214.825 278.982 229.706 279.435C230.38 279.456 231.143 279.43 231.597 278.932C231.895 278.606 231.989 278.148 232.07 277.713C234.176 266.389 235.66 254.95 236.514 243.464C236.806 239.535 237.02 235.54 236.17 231.692C235.32 227.845 233.27 224.104 229.919 222.031C227.854 220.753 225.437 220.179 223.046 219.753C218.683 218.975 214.244 218.622 209.813 218.7ZM287.504 273.81C288.529 273.811 289.823 274.11 290.003 275.119C290.182 276.125 289.036 276.874 288.022 277.003C287.281 277.098 286.475 277.008 285.887 276.547C285.299 276.086 285.026 275.182 285.434 274.556C285.853 273.915 286.738 273.809 287.504 273.81ZM363.254 253.617C361.372 260.904 360.274 268.367 359.179 275.814C359.124 276.184 359.093 276.623 359.372 276.872C362.306 273.229 364.996 269.39 367.421 265.391C367.66 264.996 367.896 264.48 367.627 264.105C367.02 263.255 366.412 262.406 365.805 261.557C365.354 260.927 364.889 260.096 365.285 259.43C365.608 258.889 366.329 258.775 366.957 258.717L372.11 258.243C372.055 257.924 371.86 257.648 371.671 257.385C370.292 255.466 368.787 253.447 366.577 252.605C365.353 252.139 363.581 252.348 363.254 253.617ZM124.586 178.229C120.819 178.861 116.739 179.95 114.553 183.082C113.329 184.834 112.879 186.999 112.52 189.106C111.106 197.393 110.664 205.846 111.207 214.235C127.447 206.682 146.448 205.247 163.639 210.276C165.097 210.702 166.901 211.995 166.136 213.307C153.24 208.539 138.877 207.828 125.573 211.299C121.269 212.422 117.085 213.967 112.805 215.18C106.444 216.983 99.8744 218.049 93.2695 218.35C105.299 234.678 106.855 258.059 97.0968 275.837C103.168 274.689 108.873 272.138 114.471 269.523C122.83 265.618 131.152 261.5 140.031 258.993C148.909 256.486 158.509 255.666 167.316 258.415C168.346 258.736 168.914 257.25 168.955 256.171L170.864 206.184C171.153 198.612 171.177 190.239 166.218 184.507C161.83 179.436 154.674 177.85 147.991 177.279C140.191 176.613 132.307 176.933 124.586 178.229ZM240.935 271.008C241.182 271.169 241.437 271.371 241.494 271.66C241.611 272.246 240.898 272.619 240.323 272.782C239.488 273.019 238.628 273.256 237.765 273.165C236.902 273.074 236.024 272.579 235.74 271.759C235.456 270.939 236.027 269.862 236.894 269.846C238.317 269.82 239.744 270.23 240.935 271.008ZM363.43 239.553C360.289 241.314 356.536 241.958 352.987 241.344C353.441 242.609 355.431 243.05 355.441 244.395C355.447 245.213 354.676 245.79 354.237 246.481C353.9 247.013 353.754 247.641 353.619 248.256C352.355 254.044 351.629 259.95 351.454 265.872C351.424 266.892 351.677 268.24 352.693 268.351C354.795 268.582 356.775 269.76 357.98 271.498C358.967 265.289 359.954 259.08 360.941 252.871C361.17 251.43 361.362 249.821 360.518 248.631C359.356 246.994 360.367 244.752 361.386 243.022L363.43 239.553ZM176.384 266.391C177.456 266.605 178.676 267.531 178.27 268.545C178.019 269.171 177.264 269.423 176.591 269.459C175.918 269.495 175.218 269.396 174.588 269.634C173.847 269.915 172.974 269.259 172.884 268.471C172.793 267.684 173.341 266.919 174.054 266.573C174.768 266.228 175.606 266.236 176.384 266.391ZM287.491 265.432C288.167 265.525 288.88 265.674 289.372 266.147C289.864 266.62 289.999 267.52 289.475 267.957C289.302 268.102 289.084 268.178 288.871 268.251C287.942 268.568 286.948 268.878 285.996 268.643C285.043 268.408 284.215 267.397 284.545 266.473C284.925 265.407 286.37 265.277 287.491 265.432ZM349.022 252.667C348.307 252.84 347.785 253.437 347.313 254.002L344.47 257.405C343.915 258.07 344.893 258.997 345.756 259.069C346.62 259.142 347.629 258.939 348.243 259.55C348.887 260.19 348.622 261.306 348.094 262.045C347.567 262.784 346.819 263.387 346.501 264.237C346.024 265.508 346.813 267.1 348.112 267.492C348.818 267.704 349.809 267.377 349.815 266.64C349.852 262.332 350.103 258.026 350.569 253.743C350.649 253.011 349.738 252.495 349.022 252.667ZM204.788 254.807C205.332 255.169 205.685 255.748 206.048 256.291C209.166 260.959 214.382 264.168 219.956 264.846C221.246 265.003 222.767 265.16 223.413 266.286C222.199 267.489 220.22 267.342 218.555 266.955C212.653 265.582 207.246 262.174 203.463 257.442C202.86 256.687 202.309 255.539 202.982 254.846C203.437 254.377 204.243 254.445 204.788 254.807ZM345.957 234.178C341.79 235.202 337.628 236.647 334.25 239.293C330.873 241.94 328.36 245.961 328.387 250.251C328.42 255.692 325.746 261.084 321.394 264.351L328.722 265.213C329.58 265.314 330.542 265.387 331.213 264.844C332.196 264.05 331.945 262.525 331.696 261.286C331.448 260.047 331.503 258.41 332.682 257.955C334.146 257.389 335.357 259.419 335.135 260.972C334.914 262.525 334.012 264.02 334.294 265.564C337.764 266.056 341.246 266.47 344.734 266.807C344.04 266.238 343.965 265.159 344.316 264.332C344.667 263.506 345.349 262.874 346.011 262.268C346.717 261.623 345.699 260.485 344.749 260.383C343.798 260.281 342.679 260.509 342.008 259.827C341.174 258.979 341.8 257.557 342.511 256.604C343.891 254.754 345.602 252.524 344.714 250.394C342.547 245.2 343.024 238.981 345.957 234.178ZM186.134 219.986C185.553 234.205 185.632 248.451 186.372 262.662C191.805 259.715 195.775 254.529 198.236 248.861C199.739 245.403 200.744 241.591 200.143 237.869C199.696 235.093 198.381 232.529 196.853 230.169C194.142 225.982 190.602 222.203 186.134 219.986ZM312.114 213.173C314.065 212.814 315.557 215.222 315.224 217.177C314.892 219.133 313.47 220.687 312.34 222.318C310.779 224.571 309.711 227.121 308.655 229.65C306.143 235.667 305.165 242.317 305.839 248.803C306.235 252.621 307.282 256.543 309.865 259.385C312.447 262.226 316.874 263.646 320.277 261.868C323.2 260.341 324.658 256.974 325.328 253.745C325.998 250.517 326.118 247.138 327.384 244.093C329.72 238.477 335.482 235.084 341.181 232.954C332.613 231.79 324.862 225.822 321.548 217.839C320.598 215.549 319.885 212.968 317.914 211.465C315.942 209.962 312.23 210.697 312.114 213.173ZM239.698 258.978C240.301 259.094 240.892 259.269 241.46 259.5C242.398 259.881 243.405 260.936 242.802 261.749C242.473 262.193 241.84 262.246 241.287 262.26C240.278 262.286 239.191 262.289 238.368 261.707C237.544 261.125 237.259 259.717 238.09 259.145C238.546 258.83 239.154 258.874 239.698 258.978ZM285.117 256.578C285.933 256.647 286.745 256.76 287.549 256.917C287.946 256.994 288.375 257.102 288.625 257.421C289.004 257.904 288.765 258.661 288.286 259.045C287.807 259.429 287.17 259.537 286.563 259.632C285.637 259.777 284.648 259.914 283.793 259.528C282.938 259.143 282.355 258.013 282.877 257.234C283.333 256.555 284.302 256.509 285.117 256.578ZM51.9472 252.192C51.2564 252.184 51.0174 253.106 51.0384 253.797C51.0986 255.781 51.5003 257.754 52.2205 259.603C52.421 259.808 52.6538 259.381 52.6258 259.096L51.9472 252.192ZM184.697 257.3C184.266 257.533 184.102 258.153 184.361 258.569L184.371 258.584L184.362 258.595C184.35 258.608 184.338 258.625 184.325 258.645C184.152 258.907 184.395 259.324 184.709 259.301C184.921 258.656 184.917 257.942 184.697 257.3ZM175.718 254.492C176.653 254.698 177.668 255.474 177.435 256.402C177.281 257.018 176.634 257.379 176.014 257.516C175.395 257.654 174.741 257.645 174.149 257.874C173.397 258.166 172.491 257.56 172.336 256.768C172.181 255.977 172.667 255.15 173.367 254.749C174.067 254.348 174.93 254.317 175.718 254.492ZM181.128 123.517C181.183 166.322 182.166 209.125 184.078 251.886L184.279 256.308L184.31 254.886C184.365 251.562 184.316 248.237 184.267 244.913C183.697 205.95 183.126 166.987 182.555 128.025C182.531 126.393 182.403 124.537 181.128 123.517ZM242.367 248.232C242.892 248.389 243.418 248.627 243.758 249.056C244.099 249.485 244.196 250.144 243.859 250.575C243.534 250.993 242.943 251.073 242.415 251.12L240.163 251.319C239.794 251.352 239.399 251.379 239.079 251.194C238.82 251.045 238.649 250.772 238.57 250.484C238.334 249.617 238.92 248.676 239.732 248.289C240.544 247.903 241.506 247.975 242.367 248.232ZM60.9216 214.726C58.5796 217.026 57.3615 220.207 56.236 223.29C53.0998 231.883 50.1195 241.003 51.6669 250.018C52.1454 250.105 52.3735 249.455 52.409 248.97C53.0451 240.273 54.7835 231.657 57.5693 223.393C58.6323 220.24 59.9108 217.038 62.272 214.694C62.2397 214.123 61.3297 214.325 60.9216 214.726ZM348.838 233.522C348.43 233.623 348.166 234.008 347.952 234.37C345.937 237.789 344.988 241.826 345.27 245.785C345.386 247.419 345.912 249.302 347.438 249.898C348.68 248.706 349.921 247.515 351.162 246.323C351.359 246.134 351.561 245.938 351.67 245.687C351.942 245.061 351.553 244.361 351.195 243.779C349.427 240.901 348.098 237.254 349.572 234.214C349.755 233.836 349.247 233.422 348.838 233.522ZM374.632 229.834C374.433 229.937 374.281 230.108 374.133 230.275C370.468 234.418 366.929 238.672 363.522 243.029C362.811 243.939 362.068 244.965 362.138 246.118C362.2 247.143 362.921 248.036 363.795 248.575C364.669 249.114 365.688 249.36 366.687 249.598C366.954 249.661 367.244 249.723 367.496 249.612C367.727 249.51 367.874 249.283 368.007 249.068C370.093 245.705 372.208 242.276 373.194 238.444C373.404 237.627 374.112 237.056 374.679 236.431C375.792 235.202 376.444 233.565 376.481 231.908C376.494 231.347 376.428 230.755 376.103 230.297C375.778 229.839 375.129 229.574 374.632 229.834ZM285.388 246.234C285.893 246.359 286.45 246.551 286.676 247.019C287.075 247.844 286.139 248.704 285.263 248.975C284.584 249.185 283.827 249.258 283.176 248.973C282.525 248.689 282.031 247.971 282.179 247.276C282.441 246.042 284.164 245.931 285.388 246.234ZM176.554 244.433C176.792 244.646 177.013 244.898 177.104 245.204C177.286 245.822 176.854 246.503 176.263 246.757C175.671 247.011 174.98 246.913 174.384 246.669C173.756 246.413 173.144 245.924 173.065 245.251C172.973 244.481 173.671 243.773 174.438 243.661C175.206 243.55 175.976 243.916 176.554 244.433ZM244.466 237.665C245.078 237.914 245.142 238.84 244.72 239.349C244.298 239.858 243.593 240.027 242.934 240.082C242.276 240.138 241.594 240.114 240.978 240.355C240.032 240.725 239.003 239.582 239.229 238.592C239.454 237.602 240.518 236.986 241.532 236.939C242.547 236.891 243.525 237.282 244.466 237.665ZM284.338 236.175C285.206 236.218 286.065 236.446 286.84 236.839C287.176 237.01 287.523 237.246 287.619 237.611C287.816 238.362 286.874 238.877 286.111 239.024C285.435 239.153 284.749 239.231 284.061 239.255C283.212 239.284 282.188 239.12 281.849 238.341C281.587 237.736 281.907 236.994 282.445 236.611C282.983 236.229 283.679 236.143 284.338 236.175ZM340.31 180.739C335.245 181.556 330.157 182.233 325.055 182.769C321.359 183.158 317.877 185.254 315.806 188.339C315.38 188.973 315.087 189.984 315.744 190.373C317.604 188.228 320.129 186.667 322.879 185.962C323.862 185.71 324.938 185.572 325.865 185.985C326.792 186.398 327.455 187.535 327.036 188.459C326.391 189.877 324.337 189.481 322.781 189.386C318.455 189.122 314.714 194.072 316.149 198.16C317.156 194.257 322.73 192.563 325.854 195.111C328.977 197.659 328.596 203.255 325.254 205.51C324.15 206.256 322.733 206.775 322.229 208.008C321.797 209.065 322.213 210.259 322.627 211.323C323.277 212.993 323.928 214.664 324.578 216.334C325.942 219.835 327.391 223.465 330.151 226.015C332.273 227.976 335.026 229.143 337.833 229.827C347.957 232.294 359.354 228.368 365.81 220.19C366.327 219.535 367.508 220.157 367.6 220.986C367.692 221.816 367.125 222.562 366.563 223.18C363.673 226.361 360.03 228.853 356.017 230.394C354.121 231.123 351.867 231.911 351.284 233.857C350.801 235.468 351.817 237.249 353.275 238.087C354.734 238.926 356.512 238.997 358.185 238.814C361.52 238.449 364.748 237.144 367.399 235.088C368.202 234.464 368.98 233.736 369.337 232.784C369.676 231.882 369.598 230.885 369.517 229.925L369.445 229.101C369.132 225.523 368.727 221.903 367.268 218.632C366.567 217.058 365.628 215.584 365.111 213.94C364.474 211.913 364.512 209.738 364.084 207.657C363.656 205.575 362.572 203.414 360.59 202.646C361.113 201.317 362.419 200.48 363.265 199.328C364.111 198.176 364.235 196.163 362.904 195.643C362.267 195.394 361.542 195.608 360.935 195.923C358.378 197.251 356.999 200.5 357.819 203.261C358.355 205.063 355.507 206.272 353.974 205.184C352.441 204.095 352.063 202.022 351.761 200.167C350.589 192.974 348.237 185.22 342.092 181.299C341.555 180.956 340.939 180.637 340.31 180.739ZM176.017 231.761C176.825 232.023 177.63 232.749 177.462 233.581C177.303 234.368 176.398 234.736 175.606 234.871C174.484 235.064 173.02 234.843 172.704 233.749C172.404 232.708 173.494 231.711 174.572 231.597C175.058 231.545 175.552 231.61 176.017 231.761ZM305.576 216.779C304.823 217.493 304.456 218.512 304.114 219.491C303.341 221.7 302.559 223.974 302.648 226.313C302.705 227.819 301.832 229.175 301.208 230.546C300.585 231.918 300.246 233.675 301.224 234.821C303.559 232.859 304.119 229.554 304.633 226.548C305.246 222.954 306.081 219.228 308.406 216.418C307.593 215.775 306.329 216.065 305.576 216.779ZM244.047 226.796C244.648 226.99 245.328 227.376 245.336 228.007C245.345 228.775 244.4 229.128 243.644 229.266C243.266 229.335 242.887 229.404 242.508 229.474C241.543 229.65 240.509 229.819 239.612 229.422C238.715 229.025 238.118 227.815 238.703 227.028C239.082 226.519 239.779 226.38 240.412 226.341C241.638 226.265 242.878 226.421 244.047 226.796ZM156.298 215.709C157.354 216.214 158.535 217.209 158.144 218.312C147.267 215.941 135.646 217.114 125.461 221.61C120.879 223.633 116.577 226.308 111.834 227.921C110.212 228.473 108.44 228.896 106.801 228.396C105.162 227.895 103.795 226.157 104.275 224.512C104.725 222.967 106.445 222.233 107.968 221.718C115.479 219.176 123.12 217.02 130.852 215.262C139.288 213.344 148.494 211.977 156.298 215.709ZM312.487 215.579C311.71 215.576 311.057 216.146 310.546 216.731C309.307 218.15 308.427 219.852 307.772 221.618C306.958 223.812 306.477 226.129 306.35 228.465C308.599 224.597 311.004 220.819 313.556 217.144C313.999 216.506 313.263 215.582 312.487 215.579ZM298.704 222.47C298.491 222.472 298.266 222.479 298.086 222.593C297.681 222.85 297.738 223.45 297.858 223.914C298.239 225.386 298.766 226.821 299.43 228.189C299.828 226.261 300.468 224.383 301.329 222.612C300.458 222.513 299.581 222.465 298.704 222.47ZM128.254 217.5C121.815 219.478 115.377 221.456 108.938 223.435C108.169 223.671 107.276 224.036 107.113 224.824C107.636 225.587 108.633 225.911 109.558 225.866C110.483 225.822 111.361 225.467 112.218 225.117C118.75 222.448 125.282 219.78 131.814 217.112C130.648 216.786 129.412 217.144 128.254 217.5ZM196.198 221.111C195.852 221.71 195.132 221.965 194.593 222.399C194.053 222.833 193.737 223.767 194.306 224.16C195.179 223.288 196.051 222.415 196.923 221.542C196.742 221.318 196.48 221.162 196.198 221.111ZM264.132 220.646C268.812 221.133 273.534 221.382 278.222 220.979C279.435 220.874 280.886 220.825 281.606 221.807C280.697 222.732 279.269 222.844 277.973 222.899C273.107 223.107 268.241 223.316 263.375 223.524C262.425 223.565 261.223 223.444 260.915 222.545C260.673 221.838 261.224 221.058 261.916 220.774C262.608 220.49 263.388 220.569 264.132 220.646ZM336.487 215.534C337.62 216.911 338.033 218.848 337.562 220.567C337.445 220.992 337.275 221.408 337.004 221.754C336.292 222.663 334.978 222.931 333.855 222.662C332.732 222.394 331.771 221.679 330.914 220.905C330.031 220.108 329.202 219.2 328.779 218.088C328.355 216.977 328.404 215.624 329.156 214.702C329.776 213.943 330.777 213.578 331.755 213.507C333.534 213.376 335.355 214.157 336.487 215.534ZM178.717 218.735C179.164 219.096 179.089 219.847 178.708 220.276C178.326 220.706 177.743 220.89 177.186 221.029C176.527 221.193 175.834 221.321 175.174 221.164C174.514 221.007 173.894 220.495 173.813 219.821C173.695 218.844 174.718 218.079 175.691 217.926C176.753 217.758 177.881 218.06 178.717 218.735ZM331.305 215.858C330.81 216.5 331.135 217.658 331.939 217.768C332.868 217.894 333.59 218.869 333.44 219.794C333.323 220.52 334.208 221.127 334.911 220.909C335.613 220.691 336.02 219.904 336.004 219.168C335.989 218.433 335.638 217.748 335.24 217.129C334.801 216.447 334.264 215.785 333.524 215.453C332.784 215.121 331.801 215.216 331.305 215.858ZM328.833 149.944C322.086 151.18 315.402 154.126 311.051 159.427C306.699 164.728 305.194 172.661 308.596 178.615C309.798 180.72 311.634 182.555 313.942 183.295C316.25 184.036 319.041 183.491 320.581 181.619C322.327 179.497 325.854 181.533 328.482 180.727C332.119 179.612 335.898 178.965 339.698 178.807C340.599 178.77 341.528 178.764 342.369 179.09C343.282 179.444 344.003 180.153 344.697 180.844C347.102 183.24 349.556 185.705 350.98 188.787C353.239 193.673 352.68 199.632 355.532 204.197C355.866 201.334 356.199 198.472 356.533 195.609C356.656 194.546 356.794 193.443 357.368 192.541C357.943 191.639 359.091 191.005 360.096 191.371C361.87 192.015 363.717 192.706 364.99 194.099C366.263 195.492 366.734 197.813 365.51 199.249C364.327 200.637 365.669 202.643 366.297 204.354C367.385 207.32 366.106 210.708 366.961 213.749C367.669 216.268 369.716 218.148 371.672 219.887C372.243 220.396 372.91 220.938 373.673 220.868C374.311 220.81 374.823 220.335 375.259 219.865C377.858 217.065 379.638 213.514 380.326 209.756C380.604 208.24 380.077 206.031 378.549 206.238C378.966 202.601 382.311 200.123 384.275 197.033C386.394 193.7 386.894 189.602 386.991 185.654C387.088 181.687 386.701 177.375 384.056 174.415C380.879 170.859 374.705 170.593 371.233 173.863C370.368 174.678 369.228 175.755 368.195 175.166C369.004 173.714 369.813 172.263 370.622 170.812C371.941 168.448 373.287 165.997 373.555 163.303C374.084 157.988 370.037 152.955 365.032 151.086C360.027 149.217 354.376 149.992 349.356 151.82C348.098 152.278 346.611 153.263 346.952 154.557C347.15 155.307 347.91 155.76 348.299 156.43C348.542 156.848 348.518 156.982 348.243 157.32C348.077 157.524 347.778 158.116 347.51 158C344.663 154.705 341.585 151.254 337.412 150.008C334.646 149.182 331.673 149.424 328.833 149.944ZM296.507 217.913C296.151 217.702 295.47 217.564 295.536 217.972C295.729 218.97 296.628 219.713 297.598 220.018C298.568 220.323 299.609 220.272 300.624 220.217C301.021 220.196 301.445 220.165 301.761 219.924C302.026 219.722 302.171 219.404 302.306 219.099C302.538 218.577 302.769 218.054 303 217.532C301.113 216.304 298.444 219.061 296.507 217.913ZM242.011 214.503C242.805 214.563 243.593 214.701 244.359 214.916C245.023 215.102 245.786 215.491 245.819 216.179C245.863 217.086 244.683 217.456 243.778 217.535C242.858 217.614 241.937 217.694 241.017 217.773C240.346 217.831 239.587 217.861 239.094 217.402C238.432 216.787 238.699 215.593 239.416 215.043C240.133 214.493 241.11 214.436 242.011 214.503ZM263.539 214.306C267.942 214.895 272.404 215.037 276.836 214.73C277.356 214.693 277.922 214.663 278.35 214.96C278.778 215.257 278.885 216.023 278.417 216.254C278.276 216.324 278.112 216.331 277.954 216.337C272.597 216.539 267.24 216.741 261.883 216.943C261.394 216.962 260.856 216.964 260.481 216.652C259.808 216.092 260.194 214.895 260.965 214.481C261.737 214.068 262.672 214.19 263.539 214.306ZM306.287 209.944C304.577 210.036 302.836 210.195 301.257 210.858C299.678 211.521 298.261 212.768 297.789 214.415C297.694 214.749 297.658 215.16 297.914 215.395C298.114 215.578 298.415 215.58 298.685 215.57C301.526 215.458 304.355 215.035 307.105 214.311C308.472 213.95 310.12 213.082 309.935 211.681C309.837 210.943 309.201 210.366 308.498 210.122C307.795 209.878 307.03 209.904 306.287 209.944ZM108.968 209.738C108.696 211.181 108.629 212.662 108.771 214.124C109.124 214.506 109.59 213.761 109.56 213.242C109.491 212.057 109.293 210.88 108.968 209.738ZM200.455 207.973C210.303 208.418 220.152 208.863 230 209.308C230.919 209.349 232.141 209.701 232.086 210.62C230.911 211.374 229.394 211.218 228.007 211.056C219.228 210.034 210.347 209.892 201.54 210.635C200.779 210.699 199.972 210.762 199.293 210.413C198.615 210.064 198.177 209.135 198.618 208.512C199.003 207.967 199.788 207.943 200.455 207.973ZM176.574 206.94C177.007 207.006 177.458 207.119 177.773 207.424C178.493 208.121 178.048 209.446 177.183 209.951C176.318 210.456 175.246 210.385 174.247 210.299C173.152 210.204 172.796 208.561 173.516 207.73C174.236 206.899 175.487 206.776 176.574 206.94ZM211.212 203.298C227.262 204.131 243.313 204.963 259.363 205.796C260.223 205.84 261.361 206.171 261.316 207.03C258.669 207.507 255.928 207.454 253.302 206.875L255.634 208.882C254.522 209.582 253.337 210.306 252.023 210.335C250.709 210.364 249.279 209.396 249.316 208.082C249.981 207.775 250.646 207.469 251.311 207.162C238.345 206.051 225.318 205.646 212.309 205.949C211.558 205.966 210.757 205.973 210.123 205.57C209.489 205.168 209.168 204.19 209.693 203.653C210.068 203.269 210.675 203.271 211.212 203.298ZM315.141 205.444C314.563 205.476 314.072 205.86 313.624 206.227C313.093 206.661 312.561 207.096 312.03 207.531C311.473 207.986 310.87 208.53 310.837 209.248C310.82 209.638 311.117 210.1 311.497 210.013C311.603 209.988 311.695 209.924 311.784 209.861C313.05 208.969 314.316 208.076 315.582 207.183C315.84 207.001 316.116 206.795 316.2 206.491C316.353 205.932 315.72 205.413 315.141 205.444ZM334.83 200.769C334.881 202.07 334.234 203.29 334.004 204.572C333.775 205.854 334.213 207.487 335.48 207.787C335.854 207.876 335.963 208.411 335.752 208.732C335.541 209.053 335.141 209.191 334.763 209.26C333.589 209.473 332.198 209.096 331.658 208.032C331.387 207.499 331.367 206.879 331.351 206.281C331.31 204.682 331.269 203.083 331.228 201.484C331.2 200.39 331.322 199.044 332.323 198.602C333.516 198.077 334.78 199.467 334.83 200.769ZM317.371 208.024C317.14 208.132 316.982 208.382 316.984 208.637L316.927 208.652C317.055 208.937 317.517 208.982 317.698 208.726C317.879 208.471 317.683 208.05 317.371 208.024ZM315.157 199.665C314.626 199.679 314.032 199.775 313.718 200.203C313.382 200.661 313.518 201.333 313.863 201.785C314.208 202.236 314.716 202.526 315.19 202.839C317.187 204.156 318.782 206.074 319.711 208.278C320.343 207.446 320.975 206.615 321.607 205.783C322.079 205.162 322.576 204.452 322.477 203.678C322.405 203.119 322.03 202.649 321.631 202.251C319.942 200.562 317.545 199.604 315.157 199.665ZM111.591 186.799C110.849 186.859 110.464 187.693 110.23 188.4C109.875 189.477 109.519 190.554 109.164 191.632C108.775 192.809 108.384 193.999 108.277 195.234C108.207 196.052 108.263 196.876 108.319 197.695C108.493 200.255 108.668 202.814 108.843 205.373C108.876 205.868 109.253 206.551 109.662 206.271C109.492 199.734 110.142 193.176 111.591 186.799ZM321.546 196.209C320.872 196.466 320.157 196.917 320.059 197.631C319.961 198.345 321.013 199.008 321.421 198.414C321.942 197.655 323.243 198.051 323.674 198.864C324.104 199.678 323.978 200.656 323.971 201.575C323.965 202.495 324.176 203.551 324.979 204.002C325.113 202.771 325.248 201.54 325.382 200.31C325.548 198.79 325.539 196.906 324.203 196.163C323.403 195.718 322.401 195.884 321.546 196.209ZM343.183 195.514C344.277 195.563 345.444 195.944 346.043 196.86C346.641 197.777 346.323 199.279 345.269 199.574C343.765 199.995 342.359 197.876 340.888 198.402C339.968 198.731 339.401 200.024 338.442 199.839C337.847 199.724 337.518 199.011 337.636 198.418C337.754 197.824 338.198 197.348 338.672 196.972C339.938 195.97 341.57 195.442 343.183 195.514ZM175.707 194.432C176.761 194.602 177.793 195.756 177.238 196.667C177.082 196.923 176.828 197.105 176.563 197.245C175.905 197.591 175.094 197.709 174.415 197.407C173.736 197.105 173.259 196.322 173.443 195.602C173.674 194.698 174.785 194.283 175.707 194.432ZM344.898 188.431C345.623 189.121 346.189 190.419 345.376 191.005C344.517 191.624 343.488 190.579 342.666 189.911C341.747 189.165 340.503 188.836 339.335 189.03C338.589 189.154 337.885 189.479 337.136 189.587C336.387 189.696 335.516 189.524 335.107 188.887C334.678 188.219 334.951 187.274 335.541 186.742C336.131 186.211 336.95 186.017 337.74 185.944C340.333 185.707 343.011 186.637 344.898 188.431ZM175.671 186.317C176.318 186.697 176.667 187.591 176.306 188.249C175.83 189.119 174.582 189.107 173.62 188.868C173.273 188.782 172.909 188.669 172.68 188.395C172.132 187.742 172.746 186.717 173.51 186.34C174.183 186.009 175.023 185.938 175.671 186.317Z" fill="#00160A"/>
<path fill-rule="evenodd" clip-rule="evenodd" d="M88.7802 273.773C88.8687 274.019 88.9504 274.293 88.8492 274.534C88.6677 274.966 88.0768 274.983 87.6084 274.979C84.3141 274.952 81.2514 277.781 81.0174 281.067C80.9927 281.414 80.5156 281.572 80.2069 281.412C79.8982 281.251 79.7393 280.904 79.6326 280.573C79.0307 278.706 79.4185 276.613 80.3779 274.902C81.3374 273.191 82.8221 271.826 84.435 270.71C85.0607 270.276 85.8398 269.86 86.5477 270.14C87.0154 270.325 87.3209 270.771 87.5756 271.204C88.0553 272.021 88.4591 272.882 88.7802 273.773ZM86.8667 273.399C86.5767 272.512 85.3999 272.194 84.5209 272.508C83.6418 272.821 83.0009 273.568 82.4027 274.284C81.8357 274.963 81.2423 275.704 81.1755 276.586C82.6913 274.981 84.7057 273.853 86.8667 273.399Z" fill="#B2ABFF"/>
<defs>
<filter id="filter0_d_42_3399" x="45.083" y="65.4067" width="359.088" height="359" filterUnits="userSpaceOnUse" color-interpolation-filters="sRGB">
<feFlood flood-opacity="0" result="BackgroundImageFix"/>
<feColorMatrix in="SourceAlpha" type="matrix" values="0 0 0 0 0 0 0 0 0 0 0 0 0 0 0 0 0 0 127 0" result="hardAlpha"/>
<feMorphology radius="1" operator="dilate" in="SourceAlpha" result="effect1_dropShadow_42_3399"/>
<feOffset dx="1" dy="-2"/>
<feGaussianBlur stdDeviation="4"/>
<feComposite in2="hardAlpha" operator="out"/>
<feColorMatrix type="matrix" values="0 0 0 0 0 0 0 0 0 0 0 0 0 0 0 0 0 0 0.1 0"/>
<feBlend mode="normal" in2="BackgroundImageFix" result="effect1_dropShadow_42_3399"/>
<feBlend mode="normal" in="SourceGraphic" in2="effect1_dropShadow_42_3399" result="shape"/>
</filter>
<filter id="filter1_d_42_3399" x="29.6274" y="343.226" width="254.698" height="129.497" filterUnits="userSpaceOnUse" color-interpolation-filters="sRGB">
<feFlood flood-opacity="0" result="BackgroundImageFix"/>
<feColorMatrix in="SourceAlpha" type="matrix" values="0 0 0 0 0 0 0 0 0 0 0 0 0 0 0 0 0 0 127 0" result="hardAlpha"/>
<feMorphology radius="1" operator="dilate" in="SourceAlpha" result="effect1_dropShadow_42_3399"/>
<feOffset dx="1" dy="-2"/>
<feGaussianBlur stdDeviation="4"/>
<feComposite in2="hardAlpha" operator="out"/>
<feColorMatrix type="matrix" values="0 0 0 0 0 0 0 0 0 0 0 0 0 0 0 0 0 0 0.1 0"/>
<feBlend mode="normal" in2="BackgroundImageFix" result="effect1_dropShadow_42_3399"/>
<feBlend mode="normal" in="SourceGraphic" in2="effect1_dropShadow_42_3399" result="shape"/>
</filter>
<filter id="filter2_d_42_3399" x="31.8657" y="84.0422" width="384.519" height="288.41" filterUnits="userSpaceOnUse" color-interpolation-filters="sRGB">
<feFlood flood-opacity="0" result="BackgroundImageFix"/>
<feColorMatrix in="SourceAlpha" type="matrix" values="0 0 0 0 0 0 0 0 0 0 0 0 0 0 0 0 0 0 127 0" result="hardAlpha"/>
<feMorphology radius="1" operator="dilate" in="SourceAlpha" result="effect1_dropShadow_42_3399"/>
<feOffset dx="1" dy="-2"/>
<feGaussianBlur stdDeviation="4"/>
<feComposite in2="hardAlpha" operator="out"/>
<feColorMatrix type="matrix" values="0 0 0 0 0 0 0 0 0 0 0 0 0 0 0 0 0 0 0.1 0"/>
<feBlend mode="normal" in2="BackgroundImageFix" result="effect1_dropShadow_42_3399"/>
<feBlend mode="normal" in="SourceGraphic" in2="effect1_dropShadow_42_3399" result="shape"/>
</filter>
</defs>
</svg>
