<svg width="136" height="83" viewBox="0 0 136 83" fill="none" xmlns="http://www.w3.org/2000/svg">
<path d="M101.338 59.1463C101.548 58.9742 101.816 58.8594 102.141 58.802V60.9542C101.395 60.6673 101.022 60.3038 101.022 59.8638C101.022 59.5577 101.127 59.3185 101.338 59.1463Z" fill="#121212"/>
<path d="M103.806 63.5943V66.0623C104.131 65.9857 104.399 65.8423 104.61 65.6318C104.839 65.4214 104.954 65.144 104.954 64.7996C104.954 64.2257 104.571 63.8239 103.806 63.5943Z" fill="#121212"/>
<path fill-rule="evenodd" clip-rule="evenodd" d="M102.883 72.1835C108.126 72.1835 112.377 67.9338 112.377 62.6915C112.377 57.4492 108.126 53.1995 102.883 53.1995C97.64 53.1995 93.3896 57.4492 93.3896 62.6915C93.3896 67.9338 97.64 72.1835 102.883 72.1835ZM103.806 56.1045C103.806 55.4923 103.529 55.1862 102.974 55.1862C102.419 55.1862 102.141 55.4923 102.141 56.1045V56.621C101.089 56.7741 100.247 57.1471 99.6156 57.7402C98.9842 58.3333 98.6684 59.0889 98.6684 60.0072C98.6684 60.8873 98.9555 61.5856 99.5295 62.1021C100.123 62.6186 100.993 63.0013 102.141 63.25V66.0049C101.452 65.8327 100.907 65.5553 100.505 65.1727C100.276 64.9622 100.008 64.857 99.7017 64.857C99.3573 64.857 99.0607 64.9814 98.812 65.2301C98.5823 65.4596 98.4675 65.7275 98.4675 66.0336C98.4675 66.3205 98.5632 66.5788 98.7545 66.8084C99.5391 67.6693 100.668 68.1858 102.141 68.358V69.9076C102.141 70.5198 102.419 70.8259 102.974 70.8259C103.529 70.8259 103.806 70.5198 103.806 69.9076V68.358C104.858 68.205 105.7 67.8128 106.332 67.1814C106.982 66.5501 107.308 65.7657 107.308 64.8283C107.308 64.0248 107.135 63.3935 106.791 62.9343C106.447 62.4752 106.016 62.1308 105.499 61.9012C104.983 61.6717 104.466 61.4995 103.949 61.3847C103.892 61.3847 103.844 61.3751 103.806 61.356V58.9168C104.208 59.0315 104.581 59.1942 104.925 59.4046C105.136 59.5385 105.365 59.6055 105.614 59.6055C105.92 59.6055 106.188 59.5003 106.418 59.2898C106.667 59.0794 106.791 58.8211 106.791 58.515C106.791 58.1706 106.628 57.8645 106.303 57.5967C105.652 57.0419 104.82 56.7167 103.806 56.621V56.1045Z" fill="#121212"/>
<path d="M89.1948 62.6915C89.1948 64.3983 87.811 65.7819 86.1039 65.7819C84.3968 65.7819 83.013 64.3983 83.013 62.6915C83.013 60.9847 84.3968 59.6011 86.1039 59.6011C87.811 59.6011 89.1948 60.9847 89.1948 62.6915Z" fill="#121212"/>
<path d="M119.662 65.7819C117.955 65.7819 116.571 64.3983 116.571 62.6915C116.571 60.9847 117.955 59.6011 119.662 59.6011C121.369 59.6011 122.753 60.9847 122.753 62.6915C122.753 64.3983 121.369 65.7819 119.662 65.7819Z" fill="#121212"/>
<path fill-rule="evenodd" clip-rule="evenodd" d="M54.8376 0L40.0303 36.6436H28.039C23.4055 36.6436 19.6494 40.3992 19.6494 45.0319V51.2965L1.88986 41.5139C1.32073 41.2004 0.620566 41.5841 0.586233 42.2329C0.559912 42.7302 0.528148 43.3444 0.49319 44.0486C0.468569 44.5446 0.442365 45.0853 0.41536 45.6613L0.411665 45.7402C0.22561 49.7204 0.00348694 55.3498 4.12592e-05 59.6011C-0.00351857 63.9932 0.223972 69.8227 0.413275 73.9025L0.416968 73.982C0.443814 74.5589 0.469853 75.0999 0.494309 75.5961C0.52904 76.3006 0.56058 76.9144 0.586714 77.4114C0.620839 78.0603 1.32103 78.443 1.89026 78.1295L19.6494 68.3471V74.6117C19.6494 79.2444 23.4055 83 28.039 83H65.1299C66.9383 83 68.6132 82.4279 69.9832 81.4548H136V43.9282H73.8226C73.8229 43.926 73.8233 43.9237 73.8236 43.9215L108.486 27.7606C110.598 30.0031 113.243 30.4287 115.24 30.2292L121.629 43.9282H127.213L115.529 18.875L104.56 23.989L83.8354 6.60148L80.6311 10.4196L54.8376 0ZM58.6231 36.6436H45.507L55.7476 11.3011C58.8218 11.5011 61.0465 10.0088 62.3711 8.50094L77.2105 14.4955L58.6231 36.6436ZM71.3943 39.4521C69.8828 37.7568 67.6932 36.6791 65.2512 36.6445L81.2082 17.6306C84.0701 18.7707 86.6471 18.0387 88.3729 17.014L99.4992 26.3486L71.3943 39.4521ZM59.4084 8.13461C59.7043 7.40231 59.3485 6.56802 58.6136 6.27116C57.8787 5.97431 57.0431 6.32731 56.7472 7.05961C56.4513 7.7919 56.8071 8.62619 57.542 8.92305C58.2768 9.2199 59.1125 8.8669 59.4084 8.13461ZM85.4884 13.7324C86.0956 14.2418 86.1761 15.1452 85.6684 15.7502C85.1606 16.3552 84.2568 16.4328 83.6497 15.9234C83.0426 15.414 82.962 14.5106 83.4697 13.9056C83.9775 13.3006 84.8813 13.223 85.4884 13.7324ZM113.323 27.941C114.039 27.6072 114.348 26.7544 114.013 26.0362C113.678 25.318 112.826 25.0064 112.11 25.3402C111.394 25.674 111.086 26.5268 111.42 27.245C111.755 27.9632 112.607 28.2748 113.323 27.941ZM125.861 49.0053H79.9051C78.939 51.9301 76.7218 53.4334 74.8273 54.0966V71.2864C76.7218 71.9496 78.939 73.4529 79.9051 76.3777H125.861C126.827 73.4529 129.044 71.9496 130.939 71.2864V54.0966C129.044 53.4334 126.827 51.9301 125.861 49.0053ZM77.0277 75.6051C77.0277 76.3975 76.3874 77.0399 75.5975 77.0399C74.8075 77.0399 74.1672 76.3975 74.1672 75.6051C74.1672 74.8126 74.8075 74.1702 75.5975 74.1702C76.3874 74.1702 77.0277 74.8126 77.0277 75.6051ZM75.5975 51.2128C76.3874 51.2128 77.0277 50.5704 77.0277 49.7779C77.0277 48.9855 76.3874 48.3431 75.5975 48.3431C74.8075 48.3431 74.1672 48.9855 74.1672 49.7779C74.1672 50.5704 74.8075 51.2128 75.5975 51.2128ZM131.599 49.7779C131.599 50.5704 130.959 51.2128 130.169 51.2128C129.379 51.2128 128.738 50.5704 128.738 49.7779C128.738 48.9855 129.379 48.3431 130.169 48.3431C130.959 48.3431 131.599 48.9855 131.599 49.7779ZM130.169 77.0399C130.959 77.0399 131.599 76.3975 131.599 75.6051C131.599 74.8126 130.959 74.1702 130.169 74.1702C129.379 74.1702 128.738 74.8126 128.738 75.6051C128.738 76.3975 129.379 77.0399 130.169 77.0399ZM28.039 41.7207H65.1299C66.9589 41.7207 68.4416 43.2032 68.4416 45.0319V74.6117C68.4416 76.4404 66.9589 77.9229 65.1299 77.9229H28.039C26.21 77.9229 24.7273 76.4404 24.7273 74.6117V45.0319C24.7273 43.2032 26.21 41.7207 28.039 41.7207ZM19.6494 56.3371L4.72521 48.1163C4.56886 51.7669 4.41841 56.1627 4.41562 59.6046C4.41273 63.1789 4.5674 67.7582 4.72755 71.526L19.6494 63.3065V56.3371Z" fill="#121212"/>
</svg>
